<svg xmlns="http://www.w3.org/2000/svg" xmlns:xlink="http://www.w3.org/1999/xlink" version="1.1" id="Layer_1" x="0px" y="0px" viewBox="0 0 193 156" style="enable-background:new 0 0 193 156;" xml:space="preserve" width="193"  height="156" >
<style type="text/css">
	.st0{fill:#081746;}
	.st1{fill:#BF882E;}
	.st2{fill:#FFFFFF;}
</style>
<g>
	<path class="st0" d="M192.9-0.6L192.9-0.6H-0.6v147.8v9.1h9.1c0,0,0,0,0,0h175.3c0,0,0,0,0,0h9.1v-9.1c0,0,0,0,0,0V-0.6z"/>
	<g>
		<path class="st1" d="M122.5,44.1c-0.3-0.9-1.1-1.6-2-2c-1.9-0.8-4-0.1-5.7,0.9c-0.9,0.5-1.7,1.1-2.5,1.7c-0.1,0.1-0.2,0.2-0.3,0.3    l-0.3,0.2l-0.6-0.2c-0.9-0.3-1.7-0.6-2.5-0.8c1.4-1.2,2.3-2.8,3.2-4.3c1.6-0.1,3.2-0.4,4.4-1.1c0.5-0.3,0.2-1.3-0.5-1.1l0,0l0,0    c-1,0.7-2.2,1.1-3.4,1.3l0.2-0.4c0.7-1.2,1.5-2.4,2.6-3.4c0.9-0.8,1.9-1.5,3.2-1.2c1.8,0.3,2.2,2.8,0.5,2.9c-0.2,0-1,0-1-0.3    c0-0.3,0.1-0.5-0.2-0.7c-0.5-0.5-1.2,0.6-0.7,1.3c0.6,0.8,2.3,0.9,3.1,0.4c1.3-0.8,1.3-2.5,0.3-3.6c-0.7-0.7-1.6-1.1-2.6-1.1    c-2.1,0-3.7,1.4-4.9,3c-0.6,0.8-1.1,1.7-1.6,2.5c-0.1,0.1-0.1,0.2-0.2,0.4l-0.2,0.3l-0.6,0c-0.9,0.1-1.8,0.1-2.7,0.2    c0.8-1.6,1.1-3.4,1.3-5.2c1.5-0.7,2.8-1.6,3.7-2.7c0.4-0.5-0.3-1.3-0.8-0.8l0,0l0,0c-0.6,1.1-1.6,1.8-2.7,2.5l0.1-0.5    c0.2-1.4,0.5-2.8,1.1-4.1c0.5-1.1,1.2-2.1,2.5-2.4c1.8-0.4,3.1,1.7,1.6,2.5c-0.2,0.1-0.9,0.4-1.1,0.1c-0.1-0.3-0.1-0.5-0.4-0.6    c-0.6-0.2-0.9,1-0.1,1.5c0.9,0.5,2.4,0,3-0.8c0.9-1.3,0.2-2.8-1.1-3.5c-0.9-0.4-1.9-0.3-2.8,0c-1.9,0.8-2.9,2.8-3.4,4.6    c-0.3,1-0.4,2-0.5,3c0,0.1,0,0.3-0.1,0.4l0,0.4l-0.5,0.3c-0.8,0.4-1.6,0.8-2.4,1.2c0.1-1.8-0.3-3.6-0.8-5.3c1.1-1.2,2-2.5,2.4-3.9    c0.2-0.6-0.8-1.1-1.1-0.4l0,0v0c-0.2,1.2-0.8,2.3-1.5,3.3l-0.1-0.5c-0.3-1.4-0.6-2.8-0.6-4.2c0-1.2,0.4-2.4,1.4-3.1    c1.5-1.1,3.5,0.4,2.5,1.7c-0.1,0.2-0.7,0.7-0.9,0.5c-0.2-0.2-0.3-0.4-0.6-0.4c-0.7,0-0.4,1.3,0.5,1.4c1,0.2,2.2-1,2.4-1.9    c0.4-1.5-0.9-2.7-2.4-2.8c-1,0-1.9,0.4-2.6,1.1c-1.5,1.5-1.6,3.6-1.3,5.6c0.1,1,0.4,2,0.6,3c0,0.1,0.1,0.3,0.1,0.4l0.1,0.4    l-0.4,0.5c-0.6,0.7-1.2,1.3-1.7,2c-0.6-1.7-1.7-3.2-2.8-4.7c0.5-1.5,0.8-3.1,0.7-4.5c-0.1-0.6-1.2-0.7-1.2,0v0l0,0    c0.3,1.2,0.2,2.4-0.1,3.6l-0.2-0.3c-0.8-1.1-1.6-2.3-2.1-3.6c-0.4-1.1-0.6-2.4,0.1-3.4c1-1.6,3.4-0.9,2.9,0.6    c-0.1,0.2-0.4,0.9-0.7,0.8c-0.3-0.1-0.4-0.3-0.8-0.1c-0.6,0.3,0.1,1.3,1,1.1c1-0.2,1.7-1.7,1.5-2.7c-0.3-1.6-1.8-2.2-3.2-1.7    c-0.9,0.3-1.6,1.1-2,2c-0.8,1.9-0.1,4,0.9,5.7c0.5,0.9,1.1,1.7,1.7,2.5c0.1,0.1,0.2,0.2,0.3,0.3l0.2,0.3l-0.2,0.6    c-0.3,0.9-0.6,1.7-0.8,2.5c-1.2-1.4-2.8-2.3-4.3-3.2c-0.1-1.6-0.4-3.2-1.1-4.4c-0.3-0.5-1.3-0.2-1.1,0.5l0,0l0,0    c0.7,1,1.1,2.2,1.3,3.4l-0.4-0.2c-1.2-0.7-2.4-1.5-3.4-2.5c-0.8-0.9-1.5-1.9-1.3-3.2c0.3-1.8,2.8-2.2,2.9-0.6c0,0.2,0,1-0.3,1    c-0.3,0-0.5-0.1-0.8,0.2c-0.5,0.5,0.6,1.2,1.3,0.7c0.8-0.6,0.9-2.3,0.4-3.1c-0.8-1.3-2.5-1.3-3.6-0.3c-0.7,0.7-1.1,1.7-1.1,2.6    c0,2.1,1.5,3.7,3,4.9c0.8,0.6,1.7,1.1,2.5,1.6c0.1,0.1,0.2,0.1,0.4,0.2l0.3,0.2l0,0.6c0.1,0.9,0.1,1.8,0.2,2.6    c-1.7-0.8-3.4-1.1-5.2-1.3c-0.7-1.5-1.6-2.8-2.7-3.7c-0.5-0.4-1.3,0.3-0.8,0.8l0,0l0,0c1.1,0.6,1.8,1.6,2.5,2.7l-0.5-0.1    c-1.4-0.2-2.8-0.5-4.1-1.1c-1.1-0.5-2.1-1.2-2.4-2.5c-0.4-1.8,1.7-3.1,2.5-1.6c0.1,0.2,0.4,0.9,0.1,1.1c-0.3,0.1-0.5,0.1-0.6,0.4    c-0.2,0.6,1,0.9,1.5,0.1c0.5-0.9,0-2.4-0.8-3c-1.3-0.9-2.8-0.2-3.5,1.1c-0.4,0.9-0.3,1.9,0,2.8c0.8,1.9,2.8,2.9,4.6,3.3    c1,0.3,2,0.4,3,0.5c0.1,0,0.3,0,0.4,0.1l0.4,0l0.3,0.5c0.4,0.8,0.8,1.6,1.2,2.4c-1.8-0.1-3.6,0.3-5.3,0.8c-1.2-1.1-2.5-2-3.9-2.4    c-0.6-0.2-1.1,0.8-0.4,1.1l0,0l0,0c1.2,0.2,2.3,0.8,3.3,1.5l-0.4,0.1c-1.4,0.3-2.8,0.6-4.2,0.6c-1.2,0-2.4-0.3-3.2-1.4    c-1.1-1.5,0.4-3.5,1.7-2.5c0.2,0.1,0.7,0.7,0.5,0.9c-0.2,0.2-0.4,0.3-0.4,0.6c0,0.7,1.3,0.4,1.4-0.5c0.2-1-1-2.2-1.9-2.4    c-1.5-0.4-2.7,0.9-2.8,2.4c0,1,0.4,1.9,1.1,2.6c1.5,1.5,3.6,1.6,5.6,1.3c1-0.1,2-0.4,3-0.6c0.1,0,0.3-0.1,0.4-0.1l0.4-0.1l0.5,0.4    c0.7,0.6,1.3,1.2,2,1.7c-1.7,0.6-3.2,1.7-4.6,2.8c-1.5-0.5-3.1-0.9-4.5-0.7c-0.6,0.1-0.7,1.2,0,1.2h0l0,0c1.2-0.3,2.4-0.2,3.7,0.1    l-0.4,0.3c-1.1,0.8-2.3,1.6-3.6,2.1c-1.1,0.4-2.3,0.6-3.4-0.1c-1.6-1-0.9-3.4,0.6-2.9c0.2,0.1,1,0.4,0.8,0.7    c-0.1,0.3-0.3,0.4-0.1,0.7c0.3,0.6,1.3-0.1,1.1-1c-0.2-1-1.7-1.7-2.7-1.5c-1.6,0.3-2.2,1.8-1.6,3.3c0.3,0.9,1.1,1.6,2,2    c1.9,0.8,4,0.1,5.7-0.9c0.9-0.5,1.7-1.1,2.5-1.7c0.1-0.1,0.2-0.2,0.3-0.3l0.3-0.2l0.6,0.2c0.9,0.3,1.7,0.6,2.5,0.8    c-1.4,1.2-2.3,2.8-3.2,4.3c-1.6,0.1-3.2,0.4-4.5,1.1c-0.5,0.3-0.2,1.3,0.5,1.1l0,0l0,0c1-0.7,2.2-1.1,3.4-1.3l-0.2,0.4    c-0.7,1.2-1.5,2.4-2.5,3.4c-0.9,0.8-1.9,1.4-3.2,1.2c-1.8-0.3-2.2-2.8-0.6-2.9c0.2,0,1,0,1,0.3c0,0.3-0.1,0.5,0.2,0.7    c0.5,0.5,1.2-0.6,0.7-1.3c-0.6-0.8-2.3-0.9-3.1-0.4c-1.3,0.8-1.3,2.5-0.3,3.6c0.7,0.7,1.6,1.1,2.6,1.1c2.1,0,3.7-1.5,4.9-3    c0.6-0.8,1.1-1.7,1.6-2.5c0.1-0.1,0.1-0.2,0.2-0.4l0.2-0.3l0.6,0c0.9-0.1,1.8-0.1,2.6-0.2c-0.8,1.7-1.1,3.4-1.3,5.2    c-1.5,0.7-2.8,1.6-3.7,2.7c-0.4,0.5,0.3,1.3,0.8,0.8l0,0l0,0c0.6-1.1,1.6-1.8,2.7-2.5L82.9,56c-0.2,1.4-0.5,2.8-1.1,4.1    c-0.5,1.1-1.2,2.1-2.5,2.4c-1.8,0.4-3.1-1.7-1.6-2.5c0.2-0.1,0.9-0.4,1.1-0.1c0.1,0.3,0.1,0.5,0.4,0.6c0.6,0.2,0.9-1,0.1-1.5    c-0.9-0.5-2.4,0-3,0.8c-0.9,1.3-0.2,2.8,1.1,3.5c0.9,0.4,1.9,0.3,2.8,0c1.9-0.8,2.9-2.8,3.4-4.6c0.3-1,0.4-2,0.5-3    c0-0.1,0-0.3,0.1-0.4l0-0.4l0.5-0.3c0.8-0.4,1.6-0.8,2.4-1.2c-0.1,1.8,0.3,3.6,0.8,5.3c-1.1,1.2-2,2.5-2.4,3.9    c-0.2,0.6,0.8,1.1,1.1,0.4v0l0,0c0.2-1.2,0.8-2.3,1.5-3.3l0.1,0.5c0.3,1.4,0.6,2.8,0.6,4.2c0,1.2-0.3,2.4-1.4,3.2    c-1.5,1.1-3.5-0.4-2.5-1.7c0.1-0.2,0.7-0.7,0.9-0.5c0.2,0.2,0.3,0.4,0.6,0.4c0.7,0,0.4-1.3-0.5-1.4c-1-0.1-2.2,1-2.4,1.9    c-0.4,1.5,0.9,2.7,2.4,2.8c1,0,1.9-0.4,2.6-1.1c1.5-1.5,1.6-3.6,1.3-5.6c-0.1-1-0.4-2-0.6-3c0-0.1-0.1-0.3-0.1-0.4l-0.1-0.3    l0.4-0.5c0.6-0.7,1.2-1.3,1.7-2c0.6,1.7,1.7,3.2,2.8,4.6c-0.5,1.5-0.9,3.1-0.7,4.5c0.1,0.6,1.2,0.7,1.2,0v0l0,0    c-0.3-1.2-0.2-2.4,0.1-3.7l0.3,0.4c0.8,1.1,1.6,2.3,2.1,3.6c0.4,1.1,0.6,2.4-0.1,3.4c-1,1.6-3.4,0.9-2.9-0.6    c0.1-0.2,0.4-1,0.7-0.8c0.3,0.1,0.4,0.3,0.8,0.1c0.6-0.3-0.1-1.3-1-1.1c-1,0.2-1.7,1.7-1.5,2.7c0.3,1.6,1.8,2.2,3.2,1.7    c0.9-0.3,1.6-1.1,2-2c0.8-1.9,0.1-4-0.9-5.7c-0.5-0.9-1.1-1.7-1.7-2.5c-0.1-0.1-0.2-0.2-0.3-0.3L95.2,60l0.2-0.6    c0.3-0.9,0.6-1.7,0.8-2.5c1.2,1.4,2.8,2.3,4.3,3.2c0.1,1.6,0.4,3.2,1.1,4.4c0.3,0.5,1.3,0.2,1.1-0.5l0,0l0,0    c-0.7-1-1.1-2.2-1.3-3.4l0.4,0.2c1.2,0.7,2.4,1.5,3.4,2.5c0.8,0.9,1.4,1.9,1.2,3.2c-0.3,1.8-2.8,2.2-2.9,0.5c0-0.2,0-1,0.3-1    c0.3,0,0.5,0.1,0.7-0.2c0.5-0.5-0.6-1.2-1.3-0.7c-0.8,0.6-0.9,2.3-0.4,3.1c0.8,1.3,2.5,1.3,3.6,0.3c0.7-0.7,1.1-1.6,1.1-2.6    c0-2.1-1.5-3.7-3-4.9c-0.8-0.6-1.7-1.1-2.5-1.6c-0.1-0.1-0.2-0.1-0.4-0.2l-0.3-0.2l0-0.6c-0.1-0.9-0.1-1.8-0.2-2.6    c1.6,0.8,3.4,1.1,5.2,1.3c0.7,1.5,1.6,2.8,2.7,3.7c0.5,0.4,1.3-0.3,0.8-0.8l0,0l0,0c-1.1-0.6-1.8-1.6-2.5-2.7l0.5,0.1    c1.4,0.2,2.8,0.5,4.1,1.1c1.1,0.5,2.1,1.2,2.4,2.5c0.4,1.8-1.7,3.1-2.5,1.6c-0.1-0.2-0.4-0.9-0.1-1.1c0.3-0.1,0.5-0.1,0.6-0.4    c0.2-0.7-1-0.9-1.5-0.1c-0.5,0.9,0,2.4,0.8,3c1.3,0.9,2.8,0.2,3.5-1.1c0.4-0.9,0.3-1.9,0-2.8c-0.8-1.9-2.8-2.9-4.6-3.4    c-1-0.3-2-0.4-3-0.5c-0.1,0-0.3,0-0.4-0.1l-0.4,0l-0.3-0.5c-0.4-0.8-0.8-1.6-1.2-2.4c1.8,0.1,3.6-0.3,5.3-0.8    c1.2,1.1,2.5,2,3.9,2.4c0.6,0.2,1.1-0.8,0.4-1.1l0,0h0c-1.2-0.2-2.3-0.8-3.3-1.5l0.5-0.1c1.4-0.3,2.8-0.6,4.2-0.6    c1.2,0,2.4,0.4,3.2,1.4c1.1,1.5-0.4,3.5-1.7,2.5c-0.2-0.1-0.7-0.7-0.5-0.9c0.2-0.2,0.4-0.3,0.4-0.6c0-0.7-1.3-0.4-1.4,0.5    c-0.2,1,1,2.2,1.9,2.4c1.5,0.4,2.7-0.9,2.8-2.4c0-1-0.4-1.9-1.1-2.6c-1.5-1.5-3.6-1.6-5.6-1.3c-1,0.1-2,0.4-3,0.6    c-0.1,0-0.3,0.1-0.4,0.1l-0.4,0.1l-0.5-0.4c-0.7-0.6-1.3-1.2-2-1.7c1.7-0.6,3.2-1.7,4.6-2.8c1.5,0.5,3.1,0.9,4.5,0.7    c0.6-0.1,0.7-1.2,0-1.2h0h0c-1.2,0.3-2.4,0.2-3.7-0.1l0.4-0.3c1.1-0.8,2.3-1.6,3.6-2.1c1.1-0.4,2.4-0.6,3.4,0.1    c1.6,1,0.9,3.4-0.6,2.9c-0.2-0.1-0.9-0.4-0.8-0.7c0.1-0.3,0.3-0.4,0.1-0.8c-0.3-0.6-1.3,0.1-1.1,1c0.2,1,1.7,1.7,2.7,1.5    C122.4,47.1,123,45.5,122.5,44.1z M99.9,36.1c-0.1,0.3-0.6,1.9-1,1.8c-0.2-0.1,0-0.8,0-0.9c0.2-0.6,0.5-1.3,0.9-1.9    c0.1-0.1,0.2-0.3,0.3-0.4C100.1,35.1,100,35.7,99.9,36.1z M95.9,34.4c0-0.2,0.1-0.3,0.1-0.5c0.2,0.4,0.3,1,0.4,1.4    c0,0.3,0.2,2-0.3,2c-0.2,0-0.3-0.7-0.3-0.9C95.7,35.8,95.8,35,95.9,34.4z M92.2,52.5c0.1-0.3,0.6-1.9,1-1.8c0.2,0.1,0,0.8,0,0.9    c-0.2,0.6-0.5,1.3-0.9,1.9c-0.1,0.1-0.2,0.3-0.3,0.4C92,53.5,92.1,52.9,92.2,52.5z M96.2,54.3c0,0.2-0.1,0.3-0.1,0.5    c-0.2-0.4-0.3-1-0.4-1.4c0-0.3-0.2-2,0.3-2c0.2,0,0.3,0.7,0.4,0.9C96.3,52.9,96.3,53.6,96.2,54.3z M104.5,46.8    c-0.7-0.3-2.9-1.3-3.5-0.5c-0.1,0.1-0.1,0.2-0.1,0.3c-0.3,1.4,2,2.2,3,2.4c0.8,0.2,2.2,0.4,3,0.2c0.6,0.5,1.3,1.2,2,1.8l0.4,0.4    c-1.6,0.4-3.5,0.9-4.9,0.6c-0.4-0.7-0.9-1.5-1.5-2.1c-0.5-0.5-2.2-2.3-3-1.8c-0.1,0-0.2,0.1-0.2,0.2c-0.8,1.2,1,2.8,1.9,3.4    c0.7,0.5,1.9,1.2,2.7,1.4c0.4,0.7,0.7,1.6,1.1,2.4l0.2,0.5c-1.7-0.2-3.6-0.5-4.8-1.4c-0.1-0.8-0.3-1.7-0.6-2.5    c-0.2-0.7-1.1-2.9-2.1-2.9c-0.1,0-0.2,0-0.3,0.1c-1.2,0.8-0.1,2.9,0.4,3.8c0.4,0.7,1.2,1.8,2,2.3c0.1,0.8,0.1,1.7,0.1,2.7l0,0.5    c-1.5-0.8-3.1-1.9-3.9-3.1c0.2-0.8,0.4-1.7,0.4-2.5c0-0.7,0.1-3.2-0.8-3.4c-0.1,0-0.2,0-0.3,0c-1.4,0.3-1.2,2.7-1.1,3.7    c0.1,0.9,0.5,2.2,1,2.9c-0.3,0.8-0.6,1.6-0.9,2.5l-0.2,0.5c-1-1.3-2.1-2.9-2.4-4.3c0.5-0.6,1-1.4,1.3-2.2c0.3-0.7,1.3-2.9,0.5-3.5    c-0.1-0.1-0.2-0.1-0.3-0.1c-1.4-0.3-2.2,2-2.4,3c-0.2,0.8-0.4,2.2-0.2,3c-0.5,0.6-1.2,1.3-1.8,2L89,57.6c-0.4-1.6-0.9-3.5-0.6-4.9    c0.7-0.4,1.5-0.9,2.1-1.5c0.5-0.5,2.3-2.2,1.8-3c-0.1-0.1-0.1-0.2-0.2-0.2c-1.2-0.8-2.8,1-3.4,1.9c-0.5,0.7-1.2,1.9-1.4,2.7    c-0.7,0.4-1.6,0.7-2.4,1.1l-0.5,0.2c0.2-1.7,0.5-3.5,1.4-4.8c0.8-0.1,1.7-0.3,2.5-0.6c0.7-0.2,2.9-1.1,2.9-2.1    c0-0.1,0-0.2-0.1-0.3c-0.8-1.2-2.9-0.1-3.8,0.4c-0.7,0.4-1.8,1.2-2.3,2c-0.8,0.1-1.7,0.1-2.7,0.1l-0.5,0c0.8-1.5,1.9-3.1,3.1-3.9    c0.8,0.3,1.7,0.4,2.5,0.4c0.7,0,3.2,0.1,3.4-0.8c0-0.1,0-0.2,0-0.3C90.4,42.7,88,42.9,87,43c-0.9,0.1-2.2,0.4-2.9,1    c-0.8-0.3-1.6-0.6-2.5-0.9l-0.5-0.2c1.3-1,2.9-2.1,4.3-2.4c0.6,0.5,1.4,1,2.2,1.3c0.7,0.3,2.9,1.3,3.5,0.5    c0.1-0.1,0.1-0.2,0.1-0.3c0.2-1.4-2-2.2-3-2.4c-0.8-0.2-2.2-0.4-3-0.2c-0.6-0.5-1.3-1.2-2-1.8l-0.4-0.4c1.6-0.4,3.5-0.9,4.9-0.6    c0.4,0.7,0.9,1.5,1.5,2c0.5,0.5,2.2,2.3,3,1.8c0.1,0,0.2-0.1,0.2-0.2c0.8-1.2-1-2.8-1.9-3.4c-0.7-0.5-1.9-1.2-2.7-1.4    c-0.4-0.7-0.7-1.6-1.1-2.4l-0.2-0.5c1.7,0.2,3.6,0.5,4.8,1.4c0.1,0.8,0.3,1.7,0.6,2.5c0.2,0.7,1.1,2.9,2.1,2.9    c0.1,0,0.2,0,0.3-0.1c1.2-0.8,0.1-2.9-0.4-3.8c-0.4-0.7-1.3-1.8-2-2.3c-0.1-0.8-0.1-1.7-0.1-2.7l0-0.5c1.5,0.8,3.1,1.9,3.9,3.1    c-0.3,0.8-0.4,1.7-0.4,2.5c0,0.7-0.1,3.2,0.8,3.4c0.1,0,0.2,0,0.3,0c1.4-0.3,1.2-2.7,1.1-3.7c-0.1-0.9-0.5-2.2-1-2.9    c0.3-0.8,0.6-1.6,0.9-2.5l0.2-0.5c1,1.4,2.1,2.9,2.4,4.4c-0.5,0.6-1,1.4-1.3,2.2c-0.3,0.7-1.3,2.9-0.5,3.5    c0.1,0.1,0.2,0.1,0.3,0.1c1.4,0.2,2.2-2,2.4-3c0.2-0.8,0.4-2.2,0.2-3c0.5-0.6,1.2-1.3,1.8-2l0.4-0.4c0.4,1.6,0.9,3.5,0.6,4.9    c-0.7,0.4-1.5,0.9-2.1,1.5c-0.5,0.5-2.3,2.2-1.8,3c0,0.1,0.1,0.2,0.2,0.2c1.2,0.8,2.8-1,3.4-1.9c0.5-0.7,1.2-1.9,1.4-2.7    c0.7-0.4,1.6-0.7,2.4-1.1l0.5-0.2c-0.2,1.7-0.5,3.6-1.4,4.8c-0.8,0.1-1.7,0.3-2.5,0.6c-0.7,0.2-2.9,1.1-2.9,2.1    c0,0.1,0,0.2,0.1,0.3c0.8,1.2,2.9,0.1,3.8-0.4c0.7-0.4,1.8-1.2,2.3-2c0.8-0.1,1.7-0.1,2.7-0.1l0.5,0c-0.8,1.5-1.9,3.1-3.1,3.9    c-0.8-0.3-1.7-0.4-2.5-0.4c-0.7,0-3.1-0.1-3.4,0.8c0,0.1,0,0.2,0,0.3c0.3,1.4,2.7,1.2,3.7,1.1c0.9-0.1,2.2-0.4,2.9-1    c0.8,0.3,1.6,0.6,2.5,0.9l0.5,0.2c-1.3,1-2.9,2.1-4.3,2.4C106,47.6,105.2,47.2,104.5,46.8z M105.7,48.3c-0.5,0-1-0.1-1.4-0.2    c-0.3-0.1-1.9-0.6-1.8-1c0.1-0.2,0.8,0,0.9,0c0.6,0.2,1.3,0.5,1.9,0.9C105.4,48.1,105.5,48.2,105.7,48.3z M103.4,51.7    c-0.4-0.1-0.9-0.4-1.3-0.7c-0.2-0.2-1.6-1.3-1.3-1.6c0.2-0.2,0.8,0.3,0.9,0.4c0.5,0.4,1,1,1.4,1.5    C103.2,51.4,103.3,51.5,103.4,51.7z M100,53.9c-0.3-0.3-0.7-0.8-0.9-1.1c-0.2-0.3-1-1.8-0.5-2c0.2-0.1,0.6,0.5,0.7,0.7    c0.3,0.6,0.6,1.3,0.7,2C100,53.6,100,53.8,100,53.9z M88.7,51.7c0.1-0.4,0.4-0.9,0.7-1.3c0.2-0.2,1.3-1.6,1.6-1.3    c0.2,0.2-0.3,0.8-0.4,0.9c-0.4,0.5-1,1-1.5,1.4C88.9,51.5,88.8,51.6,88.7,51.7z M86.4,48.3c0.3-0.4,0.8-0.7,1.1-0.9    c0.3-0.2,1.8-1,2-0.5c0.1,0.2-0.5,0.6-0.7,0.7c-0.6,0.3-1.3,0.5-2,0.7C86.7,48.3,86.6,48.3,86.4,48.3z M85.6,44.3    c0.4-0.2,1-0.3,1.4-0.4c0.3,0,2-0.2,2,0.3c0,0.2-0.7,0.3-0.9,0.3c-0.7,0.1-1.4,0-2.1-0.1C85.9,44.4,85.8,44.4,85.6,44.3z     M86.4,40.3c0.5,0,1,0.1,1.4,0.2c0.3,0.1,1.9,0.6,1.8,1c-0.1,0.2-0.8,0-0.9,0c-0.6-0.2-1.3-0.5-1.9-0.9    C86.7,40.5,86.5,40.4,86.4,40.3z M88.6,37c0.4,0.1,0.9,0.4,1.3,0.7c0.2,0.2,1.6,1.3,1.3,1.6c-0.2,0.2-0.7-0.3-0.9-0.4    c-0.5-0.4-1-1-1.4-1.5C88.8,37.2,88.7,37.1,88.6,37z M92,34.7c0.3,0.3,0.7,0.8,0.9,1.1c0.2,0.3,1,1.8,0.5,2    c-0.2,0.1-0.6-0.5-0.7-0.7c-0.3-0.6-0.5-1.3-0.7-2C92.1,35,92,34.8,92,34.7z M103.4,36.9c-0.1,0.4-0.4,0.9-0.7,1.3    c-0.2,0.2-1.3,1.6-1.6,1.3c-0.2-0.2,0.3-0.8,0.4-0.9c0.4-0.5,1-1,1.5-1.4C103.1,37.1,103.3,37,103.4,36.9z M105.7,40.3    c-0.3,0.4-0.8,0.7-1.1,0.9c-0.3,0.2-1.8,1-2,0.5c-0.1-0.2,0.5-0.6,0.7-0.7c0.6-0.3,1.3-0.5,2-0.7    C105.3,40.4,105.5,40.3,105.7,40.3z M106.5,44.3c-0.4,0.2-1,0.3-1.4,0.4c-0.3,0-2,0.2-2-0.3c0-0.2,0.7-0.3,0.9-0.3    c0.7-0.1,1.4,0,2.1,0.1C106.1,44.2,106.3,44.3,106.5,44.3z"/>
		<g>
			<path class="st2" d="M30,93.6l-0.4,4h-10v-0.3c0.7,0,1.6,0,1.6-1.3V85.2c0-0.5-0.1-0.8-0.3-1.1l2.3,1.4V96c0,1,0.7,1.3,1.3,1.3     c1.4,0,4.1,0.1,5.1-3.8H30z"/>
			<path class="st2" d="M53.8,97.4v0.2h-4.7v-0.2c1,0,1.4-0.7,1.1-1.7L49,92.6h-4.7l-0.6,1.6c-1,2.6,0.7,3.1,1.6,3.1v0.2h-4.6v-0.2     c1.4,0,2-1.5,2.4-2.5c0.1-0.3,3.5-8.7,3.4-8.8l-0.6-1.3c-0.1-0.2-0.3-0.5-0.6-0.6l2.6,0.5c0,0,4.4,11,4.4,11.1     C52.9,97.1,53.1,97.4,53.8,97.4z M48.9,92.3l-2.3-5.8l-2.3,5.8H48.9z"/>
			<path class="st2" d="M71.8,97.1c-2.9,1.8-7.2-0.2-7.2-0.2l0.3-3.3h0.3c0.1,3.2,3.2,4.3,4.6,3.8c1.5-0.5,1.9-2.7,1.1-3.9     c-0.9-1.4-2.7-2.2-4.1-3c-1.4-0.8-2.3-2.2-2.3-3.8c0-1.2,1-2.2,2.1-2.6c2.8-1,6,0.6,6,0.6l-0.3,3.3H72c-0.2-3.5-3.7-4.4-5-3.7     c-0.8,0.5-1.1,1.7-0.8,2.6c0.3,1.1,1.3,1.8,2.2,2.3c1.1,0.6,2.2,1.2,3.1,2.1C73.6,93.2,73.4,96.2,71.8,97.1z"/>
			<path class="st2" d="M88.4,97.4v0.2h-4.7v-0.2c0.7,0,1.4-0.2,1.4-1.3V85.2c0-0.5-0.1-0.8-0.3-1.1l2.2,1.4V96     C87,97.2,87.7,97.4,88.4,97.4z"/>
			<path class="st2" d="M109.1,97.6h-10v-0.2c0.7,0,1.6-0.3,1.6-1.3V85.7c0-1.3-1.3-1.3-1.6-1.3v-0.2h9.7l0.2,3.4h-0.3     c-0.4-1.9-1.8-3.2-3.8-3.2h-0.9c-1,0-1.4,0.5-1.4,1.3v5.1h0.8c1.6-0.1,2.5-1.2,2.5-2.4h0.3v5H106c0-1.2-1-2.3-2.5-2.3h-0.8v5.1     c0,1.2,1.3,1.3,1.4,1.3h1.2c2.5,0,3.7-1.7,3.8-3.5h0.3L109.1,97.6z"/>
			<path class="st2" d="M127.4,97.1c-2.9,1.8-7.2-0.2-7.2-0.2l0.3-3.3h0.3c0.1,3.2,3.2,4.3,4.6,3.8c1.5-0.5,1.9-2.7,1.1-3.9     c-0.9-1.4-2.7-2.2-4.1-3c-1.4-0.8-2.3-2.2-2.3-3.8c0-1.2,1-2.2,2.1-2.6c2.8-1,6,0.6,6,0.6l-0.3,3.3h-0.3c-0.2-3.5-3.7-4.4-5-3.7     c-0.8,0.5-1.1,1.7-0.8,2.6c0.3,1.1,1.3,1.8,2.2,2.3c1.1,0.6,2.2,1.2,3.1,2.1C129.2,93.2,129,96.2,127.4,97.1z"/>
			<path class="st2" d="M150.9,88.1h-0.4c-0.2-1.7-1.1-3.8-3.4-3.8h-1.1v12.1c0,0.5,0.1,0.8,0.3,1.1l-2.2-1.4V84.4H143     c-2.3,0-3,2-3.2,3.8h-0.4l0.3-4h11L150.9,88.1z"/>
			<path class="st2" d="M172.5,97.4v0.2h-4.7v-0.2c1,0,1.4-0.7,1.1-1.7l-1.2-3.1H163l-0.6,1.6c-1,2.6,0.7,3.1,1.6,3.1v0.2h-4.6v-0.2     c1.4,0,2-1.5,2.4-2.5c0.1-0.3,3.5-8.7,3.4-8.8l-0.6-1.3c-0.1-0.2-0.3-0.5-0.6-0.6l2.6,0.5c0,0,4.4,11,4.4,11.1     C171.6,97.1,171.8,97.4,172.5,97.4z M167.7,92.3l-2.3-5.8l-2.3,5.8H167.7z"/>
		</g>
		<g>
			<path class="st1" d="M69.7,125.3h2.9c0.4,0,0.8,0,1.1,0.1c0.3,0.1,0.6,0.2,0.8,0.4c0.2,0.2,0.4,0.4,0.4,0.6     c0.1,0.2,0.1,0.5,0.1,0.8c0,0.3,0,0.6-0.1,0.8c-0.1,0.2-0.2,0.5-0.4,0.6s-0.5,0.3-0.8,0.4c-0.3,0.1-0.7,0.2-1.1,0.2l-1.8,0v1.4     h-1.1V125.3z M72.6,128.3c0.2,0,0.4,0,0.5-0.1s0.3-0.1,0.4-0.2c0.1-0.1,0.2-0.2,0.2-0.3c0.1-0.1,0.1-0.3,0.1-0.4     c0-0.3-0.1-0.6-0.3-0.8s-0.5-0.3-0.9-0.3h-1.8v2.1H72.6z"/>
			<path class="st1" d="M77.8,125.3h2.8c0.4,0,0.8,0,1.1,0.1c0.3,0.1,0.6,0.2,0.8,0.4c0.2,0.2,0.4,0.4,0.4,0.6     c0.1,0.2,0.1,0.5,0.1,0.8c0,0.2,0,0.4-0.1,0.6c0,0.2-0.1,0.3-0.2,0.5c-0.1,0.2-0.2,0.3-0.4,0.4c-0.2,0.1-0.3,0.2-0.5,0.3l1.2,1.7     h-1.3l-1-1.5h0l-1.7,0v1.5h-1.1V125.3z M80.6,128.2c0.2,0,0.4,0,0.5-0.1s0.3-0.1,0.4-0.2s0.2-0.2,0.2-0.3     c0.1-0.1,0.1-0.3,0.1-0.4c0-0.3-0.1-0.5-0.3-0.7c-0.2-0.2-0.5-0.2-0.9-0.2h-1.7v2H80.6z"/>
			<path class="st1" d="M85.9,125.3h4.6v1H87v1.1h3.1v0.9H87v1.5h3.6v1h-4.7V125.3z"/>
			<path class="st1" d="M93.4,125.3h1.1l2,2l2-2h1.1v5.4h-1.1v-3.9l-2,1.9l-2-1.9v3.9h-1.1V125.3z"/>
			<path class="st1" d="M102.5,125.3h1.1v5.4h-1.1V125.3z"/>
			<path class="st1" d="M106.3,125.3h1.1v3c0,0.2,0,0.5,0.1,0.7c0.1,0.2,0.2,0.4,0.3,0.5c0.1,0.1,0.3,0.2,0.5,0.3s0.4,0.1,0.7,0.1     c0.3,0,0.5,0,0.7-0.1c0.2-0.1,0.4-0.2,0.5-0.3s0.2-0.3,0.3-0.5c0.1-0.2,0.1-0.4,0.1-0.7v-3h1.1v3.1c0,0.4-0.1,0.7-0.2,1     c-0.1,0.3-0.3,0.5-0.5,0.8c-0.2,0.2-0.5,0.4-0.8,0.5s-0.7,0.2-1.1,0.2s-0.8-0.1-1.1-0.2c-0.3-0.1-0.6-0.3-0.8-0.5     s-0.4-0.5-0.5-0.8c-0.1-0.3-0.2-0.6-0.2-1V125.3z"/>
			<path class="st1" d="M114.6,125.3h1.1l2,2l2-2h1.1v5.4h-1.1v-3.9l-2,1.9l-2-1.9v3.9h-1.1V125.3z"/>
		</g>
		<g>
			<path class="st2" d="M25.3,108.8h1.1v4.5h3.2v1h-4.3V108.8z"/>
			<path class="st2" d="M31.4,108.8h1.1v3c0,0.2,0,0.5,0.1,0.7c0.1,0.2,0.2,0.4,0.3,0.5c0.1,0.1,0.3,0.2,0.5,0.3s0.4,0.1,0.7,0.1     c0.3,0,0.5,0,0.7-0.1c0.2-0.1,0.4-0.2,0.5-0.3c0.1-0.1,0.2-0.3,0.3-0.5c0.1-0.2,0.1-0.4,0.1-0.7v-3h1.1v3.1c0,0.4-0.1,0.7-0.2,1     c-0.1,0.3-0.3,0.5-0.5,0.8c-0.2,0.2-0.5,0.4-0.8,0.5s-0.7,0.2-1.1,0.2s-0.8-0.1-1.1-0.2c-0.3-0.1-0.6-0.3-0.8-0.5     c-0.2-0.2-0.4-0.5-0.5-0.8c-0.1-0.3-0.2-0.6-0.2-1V108.8z"/>
			<path class="st2" d="M40.8,111.4l-2.1-2.7H40l1.4,1.9l1.4-1.9h1.3l-2.1,2.7l2.2,2.8h-1.4l-1.5-2l-1.6,2h-1.3L40.8,111.4z"/>
			<path class="st2" d="M46,108.8h1.1v3c0,0.2,0,0.5,0.1,0.7c0.1,0.2,0.2,0.4,0.3,0.5c0.1,0.1,0.3,0.2,0.5,0.3s0.4,0.1,0.7,0.1     c0.3,0,0.5,0,0.7-0.1c0.2-0.1,0.4-0.2,0.5-0.3c0.1-0.1,0.2-0.3,0.3-0.5c0.1-0.2,0.1-0.4,0.1-0.7v-3h1.1v3.1c0,0.4-0.1,0.7-0.2,1     c-0.1,0.3-0.3,0.5-0.5,0.8c-0.2,0.2-0.5,0.4-0.8,0.5s-0.7,0.2-1.1,0.2s-0.8-0.1-1.1-0.2c-0.3-0.1-0.6-0.3-0.8-0.5     s-0.4-0.5-0.5-0.8c-0.1-0.3-0.2-0.6-0.2-1V108.8z"/>
			<path class="st2" d="M53.8,108.8h2.8c0.4,0,0.8,0,1.1,0.1c0.3,0.1,0.6,0.2,0.8,0.4c0.2,0.2,0.4,0.4,0.4,0.6     c0.1,0.2,0.1,0.5,0.1,0.8c0,0.2,0,0.4-0.1,0.6c0,0.2-0.1,0.3-0.2,0.5c-0.1,0.2-0.2,0.3-0.4,0.4c-0.2,0.1-0.3,0.2-0.5,0.3l1.2,1.7     h-1.3l-1-1.5h0l-1.7,0v1.5h-1.1V108.8z M56.5,111.7c0.2,0,0.4,0,0.5-0.1s0.3-0.1,0.4-0.2s0.2-0.2,0.2-0.3     c0.1-0.1,0.1-0.3,0.1-0.4c0-0.3-0.1-0.5-0.3-0.7c-0.2-0.2-0.5-0.2-0.9-0.2h-1.7v2H56.5z"/>
			<path class="st2" d="M63,112.8l-2.4-4.1h1.2l1.7,3.1l1.6-3.1h1.2l-2.3,4.1v1.4H63V112.8z"/>
			<path class="st2" d="M71.8,108.8h2.9c0.4,0,0.7,0,0.9,0.1s0.5,0.2,0.7,0.3c0.2,0.1,0.3,0.3,0.4,0.5s0.1,0.4,0.1,0.6     c0,0.3-0.1,0.6-0.3,0.9c0.2,0.1,0.4,0.3,0.6,0.6c0.1,0.2,0.2,0.5,0.2,0.8c0,0.3,0,0.5-0.1,0.7c-0.1,0.2-0.2,0.4-0.4,0.5     s-0.4,0.3-0.7,0.3s-0.6,0.1-0.9,0.1h-3.3V108.8z M75.1,110.8c0.1,0,0.2,0,0.3,0c0.2-0.1,0.2-0.3,0.2-0.5c0-0.2-0.1-0.3-0.2-0.5     c-0.2-0.1-0.4-0.2-0.7-0.2h-1.8v1.1H75.1z M75.1,113.2c0.3,0,0.5-0.1,0.7-0.2c0.2-0.1,0.2-0.3,0.2-0.5s-0.1-0.4-0.2-0.5     s-0.4-0.2-0.7-0.2h-2.2v1.5H75.1z"/>
			<path class="st2" d="M79,111.4c0-0.4,0.1-0.8,0.2-1.1c0.2-0.3,0.4-0.6,0.6-0.9c0.3-0.2,0.6-0.4,1-0.6c0.4-0.1,0.8-0.2,1.3-0.2     c0.5,0,0.9,0.1,1.3,0.2c0.4,0.1,0.7,0.3,1,0.6s0.5,0.5,0.6,0.9c0.2,0.3,0.2,0.7,0.2,1.1c0,0.4-0.1,0.8-0.2,1.1s-0.4,0.6-0.6,0.9     s-0.6,0.4-1,0.6s-0.8,0.2-1.3,0.2c-0.5,0-0.9-0.1-1.3-0.2s-0.7-0.3-1-0.6c-0.3-0.2-0.5-0.5-0.6-0.9S79,111.9,79,111.4z      M80.1,111.4c0,0.3,0.1,0.5,0.2,0.8s0.2,0.4,0.4,0.6c0.2,0.2,0.4,0.3,0.6,0.4c0.2,0.1,0.5,0.1,0.8,0.1s0.6,0,0.8-0.1     c0.2-0.1,0.5-0.2,0.6-0.4c0.2-0.2,0.3-0.3,0.4-0.6s0.2-0.5,0.2-0.8c0-0.3-0.1-0.5-0.2-0.8c-0.1-0.2-0.2-0.4-0.4-0.6     c-0.2-0.2-0.4-0.3-0.6-0.4s-0.5-0.1-0.8-0.1s-0.6,0-0.8,0.1s-0.5,0.2-0.6,0.4c-0.2,0.2-0.3,0.3-0.4,0.6     C80.2,110.9,80.1,111.2,80.1,111.4z"/>
			<path class="st2" d="M87.3,108.8h1.1v3c0,0.2,0,0.5,0.1,0.7c0.1,0.2,0.2,0.4,0.3,0.5c0.1,0.1,0.3,0.2,0.5,0.3s0.4,0.1,0.7,0.1     c0.3,0,0.5,0,0.7-0.1c0.2-0.1,0.4-0.2,0.5-0.3c0.1-0.1,0.2-0.3,0.3-0.5c0.1-0.2,0.1-0.4,0.1-0.7v-3h1.1v3.1c0,0.4-0.1,0.7-0.2,1     c-0.1,0.3-0.3,0.5-0.5,0.8c-0.2,0.2-0.5,0.4-0.8,0.5s-0.7,0.2-1.1,0.2s-0.8-0.1-1.1-0.2c-0.3-0.1-0.6-0.3-0.8-0.5     s-0.4-0.5-0.5-0.8c-0.1-0.3-0.2-0.6-0.2-1V108.8z"/>
			<path class="st2" d="M96.7,109.7h-2v-1h5.1v1h-2v4.5h-1.1V109.7z"/>
			<path class="st2" d="M101.9,108.8h1.1v5.4h-1.1V108.8z"/>
			<path class="st2" d="M105.2,111.4c0-0.4,0.1-0.8,0.2-1.1c0.2-0.3,0.4-0.6,0.6-0.9c0.3-0.2,0.6-0.4,1-0.6c0.4-0.1,0.8-0.2,1.3-0.2     c0.5,0,0.9,0.1,1.3,0.2c0.4,0.1,0.7,0.3,1,0.6c0.3,0.2,0.5,0.5,0.6,0.9c0.2,0.3,0.2,0.7,0.2,1.1c0,0.4-0.1,0.7-0.2,1     s-0.3,0.6-0.5,0.8l1,0.9h-1.4l-0.3-0.3c-0.2,0.1-0.5,0.2-0.8,0.3c-0.3,0.1-0.6,0.1-0.9,0.1c-0.5,0-0.9-0.1-1.3-0.2     s-0.7-0.3-1-0.6c-0.3-0.2-0.5-0.5-0.6-0.9S105.2,111.9,105.2,111.4z M106.3,111.4c0,0.3,0.1,0.5,0.2,0.8s0.2,0.4,0.4,0.6     c0.2,0.2,0.4,0.3,0.6,0.4c0.2,0.1,0.5,0.1,0.8,0.1c0.3,0,0.6,0,0.8-0.1l-1.6-1.4h1.4l0.9,0.9c0.1-0.2,0.2-0.3,0.3-0.5     c0.1-0.2,0.1-0.4,0.1-0.6c0-0.3-0.1-0.5-0.2-0.8c-0.1-0.2-0.2-0.4-0.4-0.6c-0.2-0.2-0.4-0.3-0.6-0.4s-0.5-0.1-0.8-0.1     s-0.6,0-0.8,0.1s-0.5,0.2-0.6,0.4c-0.2,0.2-0.3,0.3-0.4,0.6C106.3,110.9,106.3,111.2,106.3,111.4z"/>
			<path class="st2" d="M113.5,108.8h1.1v3c0,0.2,0,0.5,0.1,0.7c0.1,0.2,0.2,0.4,0.3,0.5c0.1,0.1,0.3,0.2,0.5,0.3s0.4,0.1,0.7,0.1     c0.3,0,0.5,0,0.7-0.1c0.2-0.1,0.4-0.2,0.5-0.3s0.2-0.3,0.3-0.5c0.1-0.2,0.1-0.4,0.1-0.7v-3h1.1v3.1c0,0.4-0.1,0.7-0.2,1     c-0.1,0.3-0.3,0.5-0.5,0.8c-0.2,0.2-0.5,0.4-0.8,0.5s-0.7,0.2-1.1,0.2s-0.8-0.1-1.1-0.2s-0.6-0.3-0.8-0.5     c-0.2-0.2-0.4-0.5-0.5-0.8c-0.1-0.3-0.2-0.6-0.2-1V108.8z"/>
			<path class="st2" d="M121.2,108.8h4.6v1h-3.5v1.1h3.1v0.9h-3.1v1.5h3.6v1h-4.7V108.8z"/>
			<path class="st2" d="M131.6,108.8h1.1v1.4h3.4v-1.4h1.1v5.4h-1.1v-3.1h-3.4v3.1h-1.1V108.8z"/>
			<path class="st2" d="M139.5,111.4c0-0.4,0.1-0.8,0.2-1.1c0.2-0.3,0.4-0.6,0.6-0.9c0.3-0.2,0.6-0.4,1-0.6c0.4-0.1,0.8-0.2,1.3-0.2     c0.5,0,0.9,0.1,1.3,0.2c0.4,0.1,0.7,0.3,1,0.6c0.3,0.2,0.5,0.5,0.6,0.9c0.2,0.3,0.2,0.7,0.2,1.1c0,0.4-0.1,0.8-0.2,1.1     s-0.4,0.6-0.6,0.9c-0.3,0.2-0.6,0.4-1,0.6s-0.8,0.2-1.3,0.2c-0.5,0-0.9-0.1-1.3-0.2s-0.7-0.3-1-0.6c-0.3-0.2-0.5-0.5-0.6-0.9     S139.5,111.9,139.5,111.4z M140.6,111.4c0,0.3,0,0.5,0.2,0.8s0.2,0.4,0.4,0.6c0.2,0.2,0.4,0.3,0.6,0.4c0.2,0.1,0.5,0.1,0.8,0.1     c0.3,0,0.6,0,0.8-0.1c0.2-0.1,0.5-0.2,0.6-0.4c0.2-0.2,0.3-0.3,0.4-0.6s0.2-0.5,0.2-0.8c0-0.3-0.1-0.5-0.2-0.8     c-0.1-0.2-0.2-0.4-0.4-0.6c-0.2-0.2-0.4-0.3-0.6-0.4s-0.5-0.1-0.8-0.1c-0.3,0-0.6,0-0.8,0.1s-0.5,0.2-0.6,0.4     c-0.2,0.2-0.3,0.3-0.4,0.6C140.7,110.9,140.6,111.2,140.6,111.4z"/>
			<path class="st2" d="M149.6,109.7h-2v-1h5.1v1h-2v4.5h-1.1V109.7z"/>
			<path class="st2" d="M155,108.8h4.6v1h-3.5v1.1h3.1v0.9h-3.1v1.5h3.6v1H155V108.8z"/>
			<path class="st2" d="M162,108.8h1.1v4.5h3.2v1H162V108.8z"/>
		</g>
	</g>
</g>
</svg>