<svg xmlns="http://www.w3.org/2000/svg" xmlns:xlink="http://www.w3.org/1999/xlink" version="1.1" id="Layer_1" x="0px" y="0px" viewBox="0 0 161.4 70" style="enable-background:new 0 0 161.4 70;" xml:space="preserve" width="161.4"  height="70" >
<style type="text/css">
	.st0{fill:#BF882E;}
</style>
<g>
	<g>
		<g>
			<g>
				<g>
					<g>
						<path class="st0" d="M62.7,28.8v3c0,0.1,0,0.1,0.1,0.1h4.3c0.1,0,0.1,0,0.2,0.1c0.1,0.1,0.1,0.1,0.1,0.2v1.6        c0,0.1,0,0.1-0.1,0.2c-0.1,0-0.1,0.1-0.2,0.1h-4.3c-0.1,0-0.1,0-0.1,0.1v3.2c0,0.1,0,0.1,0.1,0.1H68c0.1,0,0.1,0,0.2,0.1        c0,0.1,0.1,0.1,0.1,0.2v1.5c0,0.1,0,0.1-0.1,0.2c0,0.1-0.1,0.1-0.2,0.1h-7.2c-0.1,0-0.1,0-0.2-0.1c0-0.1-0.1-0.1-0.1-0.2V26.9        c0-0.1,0-0.1,0.1-0.2c0-0.1,0.1-0.1,0.2-0.1H68c0.1,0,0.1,0,0.2,0.1c0,0.1,0.1,0.1,0.1,0.2v1.5c0,0.1,0,0.1-0.1,0.2        c0,0.1-0.1,0.1-0.2,0.1h-5.2C62.7,28.7,62.7,28.7,62.7,28.8z"/>
						<path class="st0" d="M79.1,26.7c0.1,0.1,0.1,0.2,0.1,0.3v12.1c0,0.1,0,0.2-0.1,0.3c-0.1,0.1-0.2,0.1-0.3,0.1h-1.2        c-0.1,0-0.3,0-0.4-0.1c-0.1-0.1-0.1-0.2-0.1-0.3v-5c0-0.1,0-0.1-0.1-0.1h-5.4c-0.1,0-0.1,0-0.1,0.1v5c0,0.1,0,0.2-0.1,0.3        c-0.1,0.1-0.2,0.1-0.3,0.1h-1.2c-0.1,0-0.2,0-0.3-0.1c-0.1-0.1-0.1-0.2-0.1-0.3V27c0-0.1,0-0.2,0.1-0.3        c0.1-0.1,0.2-0.1,0.3-0.1H71c0.1,0,0.2,0,0.3,0.1c0.1,0.1,0.1,0.2,0.1,0.3v4.7c0,0.1,0,0.1,0.1,0.1H77c0.1,0,0.1,0,0.1-0.1V27        c0-0.1,0-0.2,0.1-0.3c0.1-0.1,0.2-0.1,0.4-0.1h1.2C78.9,26.6,79,26.6,79.1,26.7z"/>
						<path class="st0" d="M91.5,33.3c0.1,0.1,0.1,0.2,0.1,0.3v4.6c0,0.1,0,0.1-0.1,0.2c0,0.1-0.1,0.1-0.1,0.1h0        c0,0-0.2,0.1-0.4,0.2c-0.2,0.1-0.6,0.3-1,0.4c-0.4,0.1-0.9,0.3-1.4,0.4c-0.5,0.1-1.1,0.2-1.8,0.2c-0.9,0-1.8-0.2-2.6-0.5        c-0.8-0.3-1.5-0.8-2.1-1.4c-0.6-0.6-1.1-1.3-1.4-2.1c-0.3-0.8-0.5-1.7-0.5-2.6c0-0.9,0.2-1.8,0.5-2.6s0.8-1.5,1.4-2.1        c0.6-0.6,1.3-1.1,2.1-1.4c0.8-0.3,1.7-0.5,2.6-0.5c0.8,0,1.6,0.1,2.4,0.4c0.8,0.3,1.4,0.7,2.1,1.3c0.1,0,0.1,0.1,0.1,0.2        c0,0.1,0,0.2-0.1,0.2l-0.1,0.1c-0.1,0.1-0.2,0.2-0.4,0.4c-0.2,0.2-0.4,0.4-0.7,0.7c-0.1,0.1-0.2,0.1-0.4,0        c-0.4-0.4-0.9-0.6-1.4-0.8c-0.5-0.2-1-0.3-1.5-0.3c-0.6,0-1.1,0.1-1.7,0.4c-0.5,0.2-1,0.6-1.4,1c-0.4,0.4-0.7,0.9-0.9,1.4        c-0.2,0.5-0.3,1.1-0.3,1.7c0,0.6,0.1,1.2,0.3,1.7c0.2,0.5,0.5,1,0.9,1.4c0.4,0.4,0.8,0.7,1.4,0.9c0.5,0.2,1.1,0.4,1.7,0.4        c0.5,0,1-0.1,1.4-0.2c0.4-0.1,0.7-0.2,0.9-0.3c0,0,0.1,0,0.1-0.1v-1.6c0-0.1,0-0.1-0.1-0.1h-1.9c-0.1,0-0.2,0-0.3-0.1        C87,35,87,34.9,87,34.8v-1.3c0-0.1,0-0.2,0.1-0.3c0.1-0.1,0.2-0.1,0.3-0.1h3.9C91.4,33.2,91.5,33.2,91.5,33.3z"/>
					</g>
					<g>
						<g>
							<g>
								<path d="M99.8,27.5c0.4,0,0.7,0,0.9,0.1c0.2,0.1,0.4,0.2,0.6,0.3c0.1,0.1,0.2,0.2,0.2,0.4c0,0.1,0,0.3,0,0.4          c-0.3-0.1-0.6-0.2-0.9-0.3c-0.3-0.1-0.6-0.1-0.8-0.2c-0.3,0-0.6-0.1-0.9-0.1c-0.3,0-0.7,0-1.2,0v11.5h-0.8V28          c-0.5,0-0.8,0-1.2,0c-0.3,0-0.6,0-0.9,0.1c-0.3,0-0.6,0.1-0.8,0.2c-0.3,0.1-0.6,0.2-0.9,0.3c-0.1-0.1-0.1-0.3,0-0.4          c0-0.1,0.1-0.2,0.3-0.4c0.1-0.1,0.3-0.2,0.6-0.3c0.3-0.1,0.6-0.1,1-0.1H99.8z"/>
								<path d="M102.2,33.1c0-0.9,0.2-1.7,0.5-2.4c0.3-0.6,0.9-1.1,1.6-1.4c0.1-0.1,0.3-0.1,0.5-0.1c0.2,0,0.4,0,0.5,0          c0.2,0,0.3,0.1,0.4,0.2c0.1,0.1,0.1,0.3,0.1,0.5c-0.8-0.2-1.5-0.1-1.9,0.1c-0.3,0.2-0.6,0.5-0.7,1c-0.1,0.5-0.2,1.1-0.2,1.9          c0,0.4,0,0.9,0,1.4s0,1.1,0,1.6c0,0.6,0,1.2,0,1.7c0,0.6,0,1.1,0,1.7h-0.8V33.1z"/>
								<path d="M112.5,36.7c0,0.5-0.1,1-0.2,1.4c-0.1,0.4-0.3,0.7-0.5,0.9c-0.2,0.2-0.5,0.4-0.8,0.5c-0.3,0.1-0.7,0.2-1,0.2          c-0.6,0-1.1-0.1-1.6-0.3c-0.4-0.2-0.8-0.4-1.1-0.7c-0.3-0.3-0.5-0.6-0.7-1c-0.2-0.4-0.2-0.8-0.2-1.3c0-0.5,0.1-1,0.3-1.5          c0.2-0.5,0.5-0.9,1-1.3c0.4-0.4,1-0.7,1.6-1c0.7-0.3,1.4-0.5,2.3-0.6c0-0.3-0.1-0.6-0.2-0.9c-0.1-0.3-0.2-0.5-0.4-0.8          c-0.2-0.2-0.4-0.4-0.7-0.5c-0.3-0.1-0.6-0.2-1-0.2c-0.4,0-0.9,0.1-1.4,0.4c-0.5,0.3-0.9,0.6-1.2,0.9          c-0.2-0.3-0.2-0.5-0.1-0.8c0.1-0.2,0.3-0.4,0.5-0.5c0.2-0.1,0.4-0.2,0.7-0.3c0.2-0.1,0.5-0.1,0.8-0.2c0.3,0,0.5,0,0.7,0          c0.6,0,1.1,0.1,1.5,0.3s0.7,0.4,1,0.8s0.4,0.7,0.5,1.1c0.1,0.4,0.2,0.9,0.2,1.3V36.7z M110,39.2c0.3,0,0.5,0,0.7-0.1          s0.4-0.2,0.5-0.4c0.1-0.2,0.3-0.5,0.3-0.8c0.1-0.3,0.1-0.8,0.1-1.3v-4c-0.8,0.1-1.5,0.3-2.1,0.5c-0.6,0.2-1,0.5-1.4,0.9          c-0.4,0.3-0.6,0.7-0.8,1.1c-0.2,0.4-0.2,0.8-0.2,1.3c0,0.9,0.2,1.6,0.6,2.1C108.3,38.9,109,39.2,110,39.2z"/>
								<path d="M116.7,39.7c-0.4,0-0.7-0.1-1-0.4c-0.3-0.3-0.5-0.6-0.7-1.1c-0.2-0.5-0.4-1-0.5-1.7c-0.1-0.6-0.3-1.4-0.4-2.1          c-0.1-0.8-0.2-1.6-0.3-2.4c-0.1-0.9-0.2-1.7-0.4-2.6h0.8c0.2,1.3,0.3,2.5,0.5,3.7c0.1,1.2,0.3,2.2,0.5,3.1s0.4,1.6,0.6,2.2          c0.2,0.6,0.5,0.8,0.9,0.8c0.3,0,0.5-0.1,0.7-0.4c0.2-0.3,0.4-0.7,0.6-1.2c0.2-0.5,0.3-1.1,0.5-1.7c0.1-0.7,0.3-1.3,0.4-2.1          c0.1-0.7,0.2-1.5,0.3-2.2c0.1-0.8,0.2-1.5,0.2-2.2h0.9c-0.2,1.5-0.4,2.9-0.6,4.2c-0.2,1.3-0.5,2.4-0.7,3.3          c-0.3,0.9-0.6,1.6-1,2.1C117.7,39.4,117.2,39.7,116.7,39.7z"/>
								<path d="M126,39.7c-0.6,0-1.2-0.1-1.8-0.3c-0.6-0.2-1.1-0.5-1.5-1c-0.4-0.4-0.8-1-1-1.6c-0.3-0.7-0.4-1.4-0.4-2.3          c0-0.9,0.1-1.8,0.3-2.4c0.2-0.7,0.5-1.2,0.8-1.6c0.3-0.4,0.7-0.7,1.1-0.9c0.4-0.2,0.8-0.3,1.2-0.3c0.4,0,0.8,0.1,1.1,0.2          c0.3,0.1,0.6,0.3,0.8,0.6c0.2,0.2,0.4,0.5,0.5,0.8c0.1,0.3,0.2,0.6,0.2,1c0,0.5-0.1,0.9-0.2,1.4c-0.2,0.5-0.4,0.9-0.8,1.3          c-0.3,0.3-0.6,0.5-0.9,0.7c-0.3,0.2-0.7,0.3-1,0.4c-0.4,0.1-0.7,0.2-1.1,0.2c-0.4,0-0.7,0.1-1.1,0c0.1,0.6,0.3,1.1,0.5,1.5          c0.2,0.4,0.5,0.8,0.9,1c0.3,0.3,0.7,0.5,1.1,0.6c0.4,0.1,0.9,0.2,1.3,0.2V39.7z M122.1,34.4c0,0.3,0,0.7,0,0.9          c0.7,0,1.3-0.1,1.8-0.2c0.5-0.2,1-0.4,1.4-0.7c0.4-0.3,0.7-0.7,0.9-1.1c0.2-0.4,0.3-0.9,0.2-1.5c0-0.3-0.1-0.6-0.2-0.8          c-0.1-0.3-0.2-0.5-0.3-0.7c-0.1-0.2-0.3-0.4-0.5-0.5s-0.5-0.2-0.7-0.2c-0.4,0-0.7,0.1-1,0.4c-0.3,0.3-0.6,0.6-0.8,1          c-0.2,0.4-0.4,0.9-0.5,1.5C122.1,33.2,122.1,33.8,122.1,34.4z"/>
								<path d="M130,37.9c0,0.2,0,0.4,0,0.6c0,0.2,0.1,0.3,0.2,0.4c0.1,0.1,0.2,0.2,0.3,0.2c0.1,0,0.3,0.1,0.4,0.1v0.5          c-0.6,0-1.1-0.1-1.3-0.4c-0.3-0.3-0.4-0.8-0.4-1.4V26.4h0.8V37.9z"/>
							</g>
						</g>
					</g>
				</g>
			</g>
			<g>
				<path class="st0" d="M55.9,32.1C55.9,32.1,55.9,32,55.9,32.1C55.9,32,55.9,32,55.9,32.1c-0.5-6.6-6-11.8-12.7-11.8      c-7.1,0-12.8,5.7-12.8,12.7c0,3.6,1.5,6.8,3.8,9.1c0,0,0,0,0,0c2.7,2.7,5.4,5.5,8.2,8.2c0.1,0.1,0.3,0.3,0.5,0.4      c0,0,0.1,0,0.1,0.1l0,0c0.1,0,0.2,0,0.4,0l0,0c0,0,0.1,0,0.1,0c0.6-0.5,1.2-1.1,1.7-1.6c2.3-2.3,4.5-4.5,6.8-6.8      c0.4-0.4,0.7-0.7,1-1.1c1.8-2.2,2.9-5,2.9-8.1C56,32.7,55.9,32.4,55.9,32.1z M50.2,39.8c-2.1,2.2-4.3,4.3-6.4,6.4      c-0.4,0.4-0.8,0.5-1.2,0.1c-2.3-2.3-4.7-4.5-6.8-6.9c-4.7-5.5-2.1-14.2,5.2-15.9c3.4-0.8,6.5,0.1,9,2.6c0.5,0.5,0.5,0.9,0,1.4      c-2.3,2.3-4.6,4.6-6.9,6.9c-0.4,0.4-0.7,0.7-0.5,1.3c0.2,0.6,0.8,0.7,1.3,0.7c1.7,0,3-1.2,2.9-2.9c0-0.4,0.1-0.8,0.4-1.1      c1.2-1.1,2.3-2.3,3.4-3.4c0.6-0.6,1.1-0.5,1.5,0.3c0.5,1.2,0.7,2.4,0.7,4.1C52.9,35.7,52.1,38,50.2,39.8z"/>
				<path class="st0" d="M43.1,29.2c-0.3-0.1-0.5-0.1-0.7-0.1c-2,0-3.4,1.8-2.8,3.5c0.2,0.7,1,1,1.6,0.5c0.8-0.8,1.6-1.5,2.4-2.4      C44,30.2,43.8,29.4,43.1,29.2z"/>
			</g>
		</g>
		<g>
			<path d="M63.8,45.7h-0.2l-0.9-3.2h0l-0.9,3.2h-0.2l-1-3.3h0.1l0.9,3.2h0l0.9-3.2h0.2L63.8,45.7L63.8,45.7l0.9-3.3h0.1L63.8,45.7z     "/>
			<path d="M67.6,45.7V44h-2.2v1.6h-0.1v-3.3h0.1v1.5h2.2v-1.5h0.1v3.3H67.6z"/>
			<path d="M68.7,45.7v-3.3h1.9v0.1h-1.8v1.4h1.7V44h-1.7v1.5h1.9v0.1H68.7z"/>
			<path d="M73.3,45.7l-1-1.6h-0.8v1.6h-0.1v-3.3h0.9c0.1,0,0.2,0,0.4,0c0.1,0,0.2,0.1,0.3,0.1c0.1,0.1,0.2,0.1,0.2,0.2     c0.1,0.1,0.1,0.2,0.1,0.4c0,0.2,0,0.3-0.1,0.4c-0.1,0.1-0.1,0.2-0.2,0.2s-0.2,0.1-0.3,0.1c-0.1,0-0.2,0-0.3,0l1,1.6H73.3z      M73.2,43.2c0-0.1,0-0.3-0.1-0.4c-0.1-0.1-0.1-0.2-0.2-0.2s-0.2-0.1-0.3-0.1c-0.1,0-0.2,0-0.4,0h-0.7v1.4h0.8     c0.3,0,0.5-0.1,0.7-0.2C73.2,43.6,73.2,43.4,73.2,43.2z"/>
			<path d="M74.1,45.7v-3.3H76v0.1h-1.8v1.4h1.7V44h-1.7v1.5h1.9v0.1H74.1z"/>
			<path d="M80.2,45.7c-0.2,0.1-0.4,0.1-0.7,0.1c-0.3,0-0.5,0-0.7-0.1c-0.2-0.1-0.4-0.2-0.5-0.4c-0.2-0.2-0.3-0.3-0.3-0.5     c-0.1-0.2-0.1-0.4-0.1-0.7c0-0.2,0-0.5,0.1-0.7c0.1-0.2,0.2-0.4,0.3-0.5c0.1-0.2,0.3-0.3,0.5-0.4c0.2-0.1,0.4-0.1,0.7-0.1     c0.2,0,0.4,0,0.6,0.1c0.2,0.1,0.3,0.2,0.5,0.3l-0.1,0.1c-0.1-0.1-0.1-0.1-0.2-0.2c-0.1,0-0.2-0.1-0.3-0.1c-0.1,0-0.2-0.1-0.3-0.1     c-0.1,0-0.2,0-0.3,0c-0.2,0-0.5,0-0.7,0.1c-0.2,0.1-0.4,0.2-0.5,0.3c-0.1,0.1-0.2,0.3-0.3,0.5C78,43.6,78,43.8,78,44     s0,0.4,0.1,0.6c0.1,0.2,0.2,0.4,0.3,0.5c0.1,0.1,0.3,0.3,0.5,0.4c0.2,0.1,0.4,0.1,0.7,0.1C79.8,45.7,80,45.6,80.2,45.7     c0.1-0.1,0.2-0.2,0.4-0.2v-1.3h-0.8v-0.1h0.9v1.4C80.6,45.5,80.4,45.6,80.2,45.7z"/>
			<path d="M83.5,45.7l-1-1.6h-0.8v1.6h-0.1v-3.3h0.9c0.1,0,0.2,0,0.4,0c0.1,0,0.2,0.1,0.3,0.1c0.1,0.1,0.2,0.1,0.2,0.2     c0.1,0.1,0.1,0.2,0.1,0.4c0,0.2,0,0.3-0.1,0.4c-0.1,0.1-0.1,0.2-0.2,0.2S83.1,43.9,83,44c-0.1,0-0.2,0-0.3,0l1,1.6H83.5z      M83.5,43.2c0-0.1,0-0.3-0.1-0.4c-0.1-0.1-0.1-0.2-0.2-0.2s-0.2-0.1-0.3-0.1c-0.1,0-0.2,0-0.4,0h-0.7v1.4h0.8     c0.3,0,0.5-0.1,0.7-0.2C83.4,43.6,83.5,43.4,83.5,43.2z"/>
			<path d="M84.4,45.7v-3.3h1.9v0.1h-1.8v1.4h1.7V44h-1.7v1.5h1.9v0.1H84.4z"/>
			<path d="M89.5,45.7l-0.4-0.9h-1.9l-0.4,0.9h-0.1l1.4-3.3h0.1l1.4,3.3H89.5z M88.2,42.5l-0.9,2.2h1.8L88.2,42.5z"/>
			<path d="M90.7,42.5v3.2h-0.1v-3.2h-1.1v-0.1h2.3v0.1H90.7z"/>
			<path d="M94.4,45.5c-0.1,0.2-0.3,0.3-0.6,0.3c-0.2,0-0.4,0-0.5-0.1S93,45.4,93,45.2l0.1,0c0.1,0.1,0.2,0.2,0.3,0.3     c0.1,0.1,0.3,0.1,0.4,0.1c0.1,0,0.2,0,0.3-0.1C94.2,45.5,94.3,45.5,94.4,45.5c0-0.2,0-0.3,0.1-0.4s0-0.2,0-0.4v-2.4h0.1v2.4     C94.6,45.1,94.5,45.3,94.4,45.5z"/>
			<path d="M98.7,44c0,0.3,0,0.5-0.1,0.7c-0.1,0.2-0.2,0.4-0.3,0.5s-0.3,0.3-0.5,0.4c-0.2,0.1-0.4,0.1-0.7,0.1c-0.2,0-0.5,0-0.7-0.1     c-0.2-0.1-0.4-0.2-0.5-0.4c-0.1-0.2-0.3-0.3-0.3-0.5c-0.1-0.2-0.1-0.4-0.1-0.7s0-0.5,0.1-0.7c0.1-0.2,0.2-0.4,0.3-0.5     c0.1-0.2,0.3-0.3,0.5-0.4c0.2-0.1,0.4-0.1,0.7-0.1c0.2,0,0.5,0,0.7,0.1c0.2,0.1,0.4,0.2,0.5,0.4s0.3,0.3,0.3,0.5     C98.7,43.6,98.7,43.8,98.7,44z M98.6,44c0-0.2,0-0.4-0.1-0.6c-0.1-0.2-0.2-0.4-0.3-0.5c-0.1-0.1-0.3-0.3-0.5-0.3     c-0.2-0.1-0.4-0.1-0.6-0.1c-0.2,0-0.4,0-0.6,0.1c-0.2,0.1-0.4,0.2-0.5,0.3c-0.1,0.1-0.2,0.3-0.3,0.5c-0.1,0.2-0.1,0.4-0.1,0.6     c0,0.2,0,0.4,0.1,0.6c0.1,0.2,0.2,0.4,0.3,0.5c0.1,0.1,0.3,0.3,0.5,0.3c0.2,0.1,0.4,0.1,0.6,0.1c0.2,0,0.5,0,0.6-0.1     c0.2-0.1,0.4-0.2,0.5-0.3s0.2-0.3,0.3-0.5C98.6,44.5,98.6,44.3,98.6,44z"/>
			<path d="M101.9,44.9c0,0.2-0.1,0.3-0.2,0.4s-0.2,0.2-0.4,0.3c-0.2,0.1-0.4,0.1-0.6,0.1c-0.2,0-0.4,0-0.6-0.1     c-0.2-0.1-0.3-0.2-0.4-0.3c-0.1-0.1-0.2-0.3-0.2-0.4c0-0.2-0.1-0.3-0.1-0.5v-2h0.1v2c0,0.1,0,0.3,0,0.4c0,0.1,0.1,0.3,0.2,0.4     c0.1,0.1,0.2,0.2,0.3,0.3c0.1,0.1,0.3,0.1,0.6,0.1c0.2,0,0.4,0,0.6-0.1c0.1-0.1,0.3-0.2,0.3-0.3c0.1-0.1,0.1-0.3,0.2-0.4     c0-0.1,0-0.3,0-0.4v-2h0.1v2C102,44.6,102,44.8,101.9,44.9z"/>
			<path d="M104.8,45.7l-1-1.6H103v1.6h-0.1v-3.3h0.9c0.1,0,0.2,0,0.4,0c0.1,0,0.2,0.1,0.3,0.1c0.1,0.1,0.2,0.1,0.2,0.2     c0.1,0.1,0.1,0.2,0.1,0.4c0,0.2,0,0.3-0.1,0.4c-0.1,0.1-0.1,0.2-0.2,0.2c-0.1,0.1-0.2,0.1-0.3,0.1c-0.1,0-0.2,0-0.3,0l1,1.6     H104.8z M104.7,43.2c0-0.1,0-0.3-0.1-0.4c-0.1-0.1-0.1-0.2-0.2-0.2s-0.2-0.1-0.3-0.1c-0.1,0-0.2,0-0.4,0H103v1.4h0.8     c0.3,0,0.5-0.1,0.7-0.2C104.7,43.6,104.7,43.4,104.7,43.2z"/>
			<path d="M108.1,45.7l-2.3-3.1h0v3.1h-0.1v-3.3h0.1l2.3,3.1h0v-3.1h0.1v3.3H108.1z"/>
			<path d="M109.2,45.7v-3.3h1.9v0.1h-1.8v1.4h1.7V44h-1.7v1.5h1.9v0.1H109.2z"/>
			<path d="M112.7,44.2v1.4h-0.1v-1.4l-1.1-1.8h0.1l1.1,1.7l1-1.7h0.1L112.7,44.2z"/>
			<path d="M117.5,44.8c0,0.2,0,0.3-0.1,0.4c-0.1,0.1-0.2,0.2-0.3,0.3c-0.1,0.1-0.2,0.1-0.3,0.1s-0.2,0-0.4,0h-1v-3.3h0.9     c0.1,0,0.2,0,0.4,0c0.1,0,0.2,0.1,0.3,0.1c0.1,0.1,0.2,0.1,0.2,0.2c0.1,0.1,0.1,0.2,0.1,0.4c0,0.1,0,0.2-0.1,0.3     c0,0.1-0.1,0.2-0.1,0.2c-0.1,0.1-0.1,0.1-0.2,0.1c-0.1,0-0.2,0.1-0.2,0.1v0c0.1,0,0.2,0,0.3,0.1c0.1,0,0.2,0.1,0.3,0.2     c0.1,0.1,0.1,0.2,0.2,0.3C117.5,44.5,117.5,44.6,117.5,44.8z M117.2,43.2c0-0.1,0-0.2-0.1-0.3c-0.1-0.1-0.1-0.2-0.2-0.2     c-0.1-0.1-0.2-0.1-0.3-0.1c-0.1,0-0.2,0-0.4,0h-0.8v1.4h0.8c0.1,0,0.2,0,0.3,0c0.1,0,0.2-0.1,0.3-0.1c0.1-0.1,0.2-0.1,0.2-0.2     C117.2,43.4,117.2,43.3,117.2,43.2z M117.4,44.8c0-0.1,0-0.3-0.1-0.4c-0.1-0.1-0.1-0.2-0.2-0.3c-0.1-0.1-0.2-0.1-0.3-0.1     c-0.1,0-0.2,0-0.3,0h-0.9v1.6h0.8c0.1,0,0.3,0,0.4,0c0.1,0,0.2-0.1,0.3-0.1c0.1-0.1,0.2-0.1,0.2-0.2     C117.4,45.1,117.4,44.9,117.4,44.8z"/>
			<path d="M118.2,45.7v-3.3h1.9v0.1h-1.8v1.4h1.7V44h-1.7v1.5h1.9v0.1H118.2z"/>
			<path d="M123.2,45.7c-0.2,0.1-0.4,0.1-0.7,0.1c-0.3,0-0.5,0-0.7-0.1c-0.2-0.1-0.4-0.2-0.5-0.4c-0.2-0.2-0.3-0.3-0.3-0.5     c-0.1-0.2-0.1-0.4-0.1-0.7c0-0.2,0-0.5,0.1-0.7c0.1-0.2,0.2-0.4,0.3-0.5c0.1-0.2,0.3-0.3,0.5-0.4c0.2-0.1,0.4-0.1,0.7-0.1     c0.2,0,0.4,0,0.6,0.1c0.2,0.1,0.3,0.2,0.5,0.3l-0.1,0.1c-0.1-0.1-0.1-0.1-0.2-0.2c-0.1,0-0.2-0.1-0.3-0.1c-0.1,0-0.2-0.1-0.3-0.1     c-0.1,0-0.2,0-0.3,0c-0.2,0-0.5,0-0.7,0.1c-0.2,0.1-0.4,0.2-0.5,0.3c-0.1,0.1-0.2,0.3-0.3,0.5c-0.1,0.2-0.1,0.4-0.1,0.6     s0,0.4,0.1,0.6c0.1,0.2,0.2,0.4,0.3,0.5c0.1,0.1,0.3,0.3,0.5,0.4c0.2,0.1,0.4,0.1,0.7,0.1C122.7,45.7,122.9,45.6,123.2,45.7     c0.1-0.1,0.2-0.2,0.4-0.2v-1.3h-0.8v-0.1h0.9v1.4C123.6,45.5,123.4,45.6,123.2,45.7z"/>
			<path d="M124.6,45.7v-3.3h0.1v3.3H124.6z"/>
			<path d="M128.1,45.7l-2.3-3.1h0v3.1h-0.1v-3.3h0.1l2.3,3.1h0v-3.1h0.1v3.3H128.1z"/>
			<path d="M131.1,44.9c0,0.1,0,0.3-0.1,0.4c-0.1,0.1-0.1,0.2-0.2,0.3c-0.1,0.1-0.2,0.1-0.3,0.2c-0.1,0-0.2,0.1-0.4,0.1     c-0.2,0-0.4,0-0.6-0.1c-0.2-0.1-0.3-0.2-0.4-0.3l0.1-0.1c0.1,0.1,0.3,0.2,0.4,0.3s0.3,0.1,0.5,0.1c0.1,0,0.2,0,0.3-0.1     c0.1,0,0.2-0.1,0.3-0.2c0.1-0.1,0.1-0.1,0.2-0.2c0-0.1,0.1-0.2,0.1-0.3c0-0.1,0-0.2-0.1-0.3c-0.1-0.1-0.1-0.2-0.2-0.2     c-0.1-0.1-0.2-0.1-0.3-0.2c-0.1,0-0.2-0.1-0.3-0.1c-0.1,0-0.3-0.1-0.4-0.1c-0.1,0-0.2-0.1-0.3-0.2c-0.1-0.1-0.1-0.2-0.2-0.2     c0-0.1-0.1-0.2-0.1-0.4c0-0.1,0-0.3,0.1-0.4c0.1-0.1,0.1-0.2,0.2-0.3c0.1-0.1,0.2-0.1,0.3-0.2c0.1,0,0.2-0.1,0.4-0.1     c0.2,0,0.3,0,0.5,0.1c0.1,0.1,0.3,0.2,0.4,0.3l-0.1,0.1c-0.1-0.1-0.2-0.2-0.3-0.3s-0.3-0.1-0.4-0.1c-0.1,0-0.2,0-0.3,0     c-0.1,0-0.2,0.1-0.3,0.1c-0.1,0.1-0.2,0.1-0.2,0.2c-0.1,0.1-0.1,0.2-0.1,0.3c0,0.1,0,0.2,0.1,0.3c0,0.1,0.1,0.2,0.2,0.2     c0.1,0.1,0.2,0.1,0.3,0.2c0.1,0,0.2,0.1,0.3,0.1c0.1,0,0.3,0.1,0.4,0.1c0.1,0,0.2,0.1,0.3,0.2c0.1,0.1,0.2,0.1,0.2,0.2     C131,44.6,131.1,44.7,131.1,44.9z"/>
		</g>
	</g>
</g>
</svg>