<svg xmlns="http://www.w3.org/2000/svg" xmlns:xlink="http://www.w3.org/1999/xlink" version="1.1" id="Layer_1" x="0px" y="0px" viewBox="0 0 161.4 70" style="enable-background:new 0 0 161.4 70;" xml:space="preserve" width="161.4"  height="70" >
<style type="text/css">
	.st0{fill:#BF882E;}
</style>
<g>
	<polygon points="90.3,27.3 92.5,27.3 92.5,27.7 89.9,27.7 89.9,23.6 92.4,23.6 92.4,24 90.3,24 90.3,25.4 92.3,25.4 92.3,25.8    90.3,25.8  "/>
	<polygon points="94.6,27.3 96.5,27.3 96.5,27.7 94.2,27.7 94.2,23.6 94.6,23.6  "/>
	<polygon points="98.4,27.3 100.5,27.3 100.5,27.7 97.9,27.7 97.9,23.6 100.5,23.6 100.5,24 98.4,24 98.4,25.4 100.3,25.4    100.3,25.8 98.4,25.8  "/>
	<path d="M105.2,24.4c-0.3-0.3-0.7-0.5-1.2-0.5c-1,0-1.7,0.8-1.7,1.8c0,0.9,0.6,1.8,1.7,1.8c0.4,0,0.8-0.1,1.1-0.3v-1.4h-1v-0.4h1.4   v2c-0.5,0.3-1,0.4-1.5,0.4c-1.2,0-2.1-0.9-2.1-2.1c0-1.2,0.9-2.1,2.1-2.1c0.6,0,1.1,0.2,1.5,0.5L105.2,24.4z"/>
	<path d="M107.5,27.7H107l1.8-4.1h0.4l1.8,4.1h-0.5l-0.4-1.1H108L107.5,27.7z M108.1,26.3h1.8l-0.9-2.1L108.1,26.3z"/>
	<polygon points="115.3,27.1 115.4,27.1 115.4,23.6 115.8,23.6 115.8,27.7 115.3,27.7 112.8,24.2 112.8,24.2 112.8,27.7 112.4,27.7    112.4,23.6 112.9,23.6  "/>
	<path d="M121.1,27.1c-0.3,0.4-0.8,0.7-1.5,0.7c-1.2,0-2.1-0.9-2.1-2.1c0-1.2,0.9-2.1,2.1-2.1c0.5,0,1.1,0.2,1.4,0.6l-0.4,0.3   c-0.2-0.3-0.6-0.5-1-0.5c-1,0-1.7,0.8-1.7,1.8c0,0.9,0.6,1.8,1.7,1.8c0.4,0,0.9-0.1,1.2-0.6L121.1,27.1z"/>
	<polygon points="123.1,27.3 125.3,27.3 125.3,27.7 122.7,27.7 122.7,23.6 125.2,23.6 125.2,24 123.1,24 123.1,25.4 125.1,25.4    125.1,25.8 123.1,25.8  "/>
	<polygon points="89.9,31.6 90.3,31.6 90.3,33.3 92.6,33.3 92.6,31.6 93,31.6 93,35.6 92.6,35.6 92.6,33.7 90.3,33.7 90.3,35.6    89.9,35.6  "/>
	<path d="M96.8,35.8c-1.2,0-2.1-0.9-2.1-2.1c0-1.2,0.9-2.1,2.1-2.1c1.2,0,2.1,0.9,2.1,2.1C98.9,34.8,98,35.8,96.8,35.8 M96.8,31.8   c-1,0-1.7,0.8-1.7,1.8c0,0.9,0.6,1.8,1.7,1.8c1,0,1.7-0.8,1.7-1.8C98.5,32.7,97.8,31.8,96.8,31.8"/>
	<path d="M102.5,32.2c-0.2-0.3-0.4-0.4-0.8-0.4c-0.4,0-0.9,0.2-0.9,0.7c0,1.1,2.1,0.5,2.1,2c0,0.7-0.7,1.2-1.3,1.2   c-0.5,0-1-0.2-1.3-0.6l0.4-0.3c0.2,0.3,0.5,0.5,0.9,0.5c0.4,0,0.9-0.3,0.9-0.7c0-1.2-2.1-0.5-2.1-2c0-0.8,0.7-1.2,1.3-1.2   c0.5,0,0.8,0.1,1.2,0.5L102.5,32.2z"/>
	<path d="M104.7,31.6h1.2c0.8,0,1.3,0.4,1.3,1.1c0,0.7-0.5,1.1-1.3,1.1h-0.8v1.9h-0.4V31.6z M105.1,33.4h0.7c0.7,0,1-0.3,1-0.7   c0-0.4-0.3-0.7-1-0.7h-0.7V33.4z"/>
	<rect x="108.9" y="31.6" width="0.4" height="4.1"/>
	<polygon points="112.5,35.6 112.1,35.6 112.1,31.9 110.8,31.9 110.8,31.6 113.9,31.6 113.9,31.9 112.5,31.9  "/>
	<path d="M115,35.6h-0.5l1.8-4.1h0.4l1.8,4.1h-0.5l-0.4-1.1h-2.1L115,35.6z M115.6,34.2h1.8l-0.9-2.1L115.6,34.2z"/>
	<polygon points="120.3,35.3 122.2,35.3 122.2,35.6 119.8,35.6 119.8,31.6 120.3,31.6  "/>
	<rect x="123.6" y="31.6" width="0.4" height="4.1"/>
	<polygon points="127.3,35.6 126.9,35.6 126.9,31.9 125.5,31.9 125.5,31.6 128.6,31.6 128.6,31.9 127.3,31.9  "/>
	<polygon points="131.5,35.6 131,35.6 131,33.9 129.5,31.6 130,31.6 131.2,33.5 132.5,31.6 133,31.6 131.5,33.9  "/>
	<path d="M93.2,40.3c-0.3-0.3-0.7-0.5-1.2-0.5c-1,0-1.7,0.8-1.7,1.8c0,0.9,0.6,1.8,1.7,1.8c0.4,0,0.8-0.1,1.1-0.3v-1.4h-1v-0.4h1.4   v2c-0.5,0.3-1,0.4-1.5,0.4c-1.2,0-2.1-0.9-2.1-2.1c0-1.2,0.9-2.1,2.1-2.1c0.6,0,1.1,0.2,1.5,0.5L93.2,40.3z"/>
	<path d="M96,43.6h-0.4v-4.1h1.3c0.8,0,1.3,0.4,1.3,1.1c0,0.6-0.4,1-1,1.1l1.2,1.9h-0.5l-1.1-1.9H96V43.6z M96,41.3h0.7   c0.7,0,1-0.3,1-0.7c0-0.4-0.3-0.7-1-0.7H96V41.3z"/>
	<path d="M101.7,43.7c-1.2,0-2.1-0.9-2.1-2.1c0-1.2,0.9-2.1,2.1-2.1c1.2,0,2.1,0.9,2.1,2.1C103.8,42.8,102.9,43.7,101.7,43.7    M101.7,39.8c-1,0-1.7,0.8-1.7,1.8c0,0.9,0.6,1.8,1.7,1.8c1,0,1.7-0.8,1.7-1.8C103.3,40.6,102.7,39.8,101.7,39.8"/>
	<path d="M108.4,42.1c0,0.7-0.3,1.6-1.5,1.6c-1.2,0-1.5-0.9-1.5-1.6v-2.6h0.4V42c0,1.2,0.8,1.3,1.1,1.3c0.3,0,1.1-0.1,1.1-1.3v-2.5   h0.4V42.1z"/>
	<path d="M110.3,39.5h1.2c0.8,0,1.3,0.4,1.3,1.1s-0.5,1.1-1.3,1.1h-0.8v1.9h-0.4V39.5z M110.7,41.3h0.7c0.7,0,1-0.3,1-0.7   c0-0.4-0.3-0.7-1-0.7h-0.7V41.3z"/>
	<g>
		<polygon class="st0" points="31.3,41.6 31.3,34.9 36.4,34.9 36.4,32.3 31.3,32.3 31.3,25.8 38.4,25.8 40.9,23.2 28.5,23.2     28.5,44.2 28.9,44.2 40.9,44.2 38.4,41.6   "/>
		<polygon class="st0" points="57.5,23.2 57.1,23.2 57.1,32.1 47.5,32.1 47.5,23.2 46.1,23.2 45.1,23.2 44.7,23.2 44.7,44.2     45.1,44.2 46.1,44.2 47.1,44.2 47.5,44.2 47.5,34.7 57.1,34.7 57.1,44.2 58.5,44.2 59.6,44.2 59.9,44.2 59.9,23.2 58.5,23.2   "/>
		<path class="st0" d="M78.6,36.1v0.2v4.5c-0.9,0.6-2,0.9-3.3,0.9c-2.3,0-4.3-0.8-5.9-2.3c-1.6-1.5-2.4-3.4-2.4-5.6    c0-2.2,0.8-4.1,2.4-5.6c1.6-1.5,3.6-2.3,5.9-2.3c0.4,0,0.7,0,1.1,0.1c0.3,0.1,0.6,0.1,0.9,0.3c0.3,0.1,0.6,0.2,0.9,0.4    c0.3,0.2,0.6,0.3,0.9,0.5l0.3,0.2l1.8-1.8l-0.4-0.3c-0.4-0.3-0.8-0.6-1.2-0.8c-0.4-0.2-0.9-0.4-1.3-0.6l0,0    c-0.4-0.2-0.9-0.3-1.4-0.4c-0.5-0.1-1-0.1-1.6-0.1c-3.1,0-5.7,1-7.8,3c-2.1,2-3.2,4.5-3.2,7.4c0,2.9,1.1,5.4,3.2,7.4    c2.1,2,4.7,3,7.8,3c1.5,0,2.8-0.2,3.7-0.6l0,0c0.9-0.4,1.6-0.7,2.2-1.1l0.2-0.1v-8.9L78.6,36.1z"/>
	</g>
	<polygon points="82.3,23.5 82.1,23.5 82.1,21.8 81.5,21.8 81.5,21.7 82.9,21.7 82.9,21.8 82.3,21.8  "/>
	<polygon points="84.1,23.1 84.7,21.7 85,21.7 85,23.5 84.8,23.5 84.8,21.9 84.8,21.9 84.1,23.5 84,23.5 83.4,21.9 83.4,21.9    83.4,23.5 83.2,23.5 83.2,21.7 83.5,21.7  "/>
</g>
</svg>