<svg xmlns="http://www.w3.org/2000/svg" xmlns:xlink="http://www.w3.org/1999/xlink" version="1.1" id="Layer_1" x="0px" y="0px" viewBox="0 0 227.6 51.6" style="enable-background:new 0 0 227.6 51.6;" xml:space="preserve" width="273"  height="62" >
<style type="text/css">
	.st0{fill:#FFFFFF;}
</style>
<g>
	<g>
		<g>
			<path class="st0" d="M91.1,12.7l-0.4,3.8h-9.6v-0.2c0.7,0,1.6,0,1.6-1.2V4.7c0-0.5-0.1-0.7-0.3-1.1L84.6,5V15     c0,0.9,0.7,1.2,1.3,1.2c1.3,0,4,0.1,4.9-3.6H91.1z"/>
			<path class="st0" d="M113.8,16.3v0.2h-4.5v-0.2c0.9,0,1.4-0.6,1.1-1.6l-1.2-3h-4.5l-0.6,1.5c-1,2.4,0.7,3,1.5,3v0.2h-4.4v-0.2     c1.4,0,1.9-1.4,2.3-2.4c0.1-0.3,3.3-8.3,3.2-8.4l-0.6-1.3c-0.1-0.2-0.3-0.4-0.5-0.6l2.5,0.4c0,0,4.2,10.5,4.2,10.6     C113,16.1,113.1,16.3,113.8,16.3z M109.2,11.5L107,5.9l-2.2,5.5H109.2z"/>
			<path class="st0" d="M131,16.1c-2.8,1.7-6.8-0.2-6.8-0.2l0.3-3.1h0.2c0.1,3.1,3.1,4.1,4.4,3.6c1.4-0.5,1.8-2.5,1-3.7     c-0.9-1.3-2.6-2.1-3.9-2.9c-1.3-0.7-2.2-2.1-2.2-3.6c0-1.1,1-2.1,2-2.5c2.6-1,5.7,0.5,5.7,0.5l-0.3,3.1h-0.2     c-0.2-3.3-3.5-4.2-4.8-3.5c-0.8,0.4-1,1.6-0.8,2.5c0.3,1,1.2,1.7,2.1,2.2c1.1,0.6,2.1,1.1,3,2C132.7,12.3,132.6,15.1,131,16.1z"/>
			<path class="st0" d="M146.9,16.3v0.2h-4.5v-0.2c0.7,0,1.3-0.2,1.3-1.3V4.7c0-0.5-0.1-0.7-0.3-1.1l2.1,1.3v10     C145.5,16.1,146.2,16.3,146.9,16.3z"/>
			<path class="st0" d="M166.6,16.5h-9.6v-0.2c0.7,0,1.6-0.2,1.6-1.3V5.1c0-1.2-1.2-1.3-1.6-1.3V3.6h9.2l0.2,3.2h-0.3     c-0.4-1.8-1.7-3-3.6-3h-0.8c-0.9,0-1.3,0.5-1.3,1.2v4.8h0.8c1.5-0.1,2.4-1.1,2.4-2.3h0.3v4.8h-0.3c0-1.2-1-2.2-2.4-2.2h-0.8V15     c0,1.2,1.3,1.2,1.3,1.2h1.1c2.4,0,3.5-1.6,3.7-3.4h0.3L166.6,16.5z"/>
			<path class="st0" d="M184.1,16.1c-2.8,1.7-6.8-0.2-6.8-0.2l0.3-3.1h0.2c0.1,3.1,3.1,4.1,4.4,3.6c1.4-0.5,1.8-2.5,1-3.7     c-0.9-1.3-2.6-2.1-3.9-2.9c-1.3-0.7-2.2-2.1-2.2-3.6c0-1.1,1-2.1,2-2.5c2.6-1,5.7,0.5,5.7,0.5l-0.3,3.1h-0.2     c-0.2-3.3-3.5-4.2-4.8-3.5c-0.8,0.4-1,1.6-0.8,2.5c0.3,1,1.2,1.7,2.1,2.2c1.1,0.6,2.1,1.1,3,2C185.8,12.3,185.6,15.1,184.1,16.1z     "/>
			<path class="st0" d="M206.6,7.4h-0.4c-0.2-1.6-1.1-3.6-3.2-3.6h-1v11.6c0,0.5,0.1,0.7,0.3,1.1l-2.1-1.3V3.9H199     c-2.2,0-2.9,2-3.1,3.6h-0.4l0.3-3.8h10.5L206.6,7.4z"/>
			<path class="st0" d="M227.2,16.3v0.2h-4.5v-0.2c0.9,0,1.4-0.6,1.1-1.6l-1.2-3h-4.5l-0.6,1.5c-1,2.4,0.7,3,1.5,3v0.2h-4.4v-0.2     c1.4,0,1.9-1.4,2.3-2.4c0.1-0.3,3.3-8.3,3.2-8.4l-0.6-1.3c-0.1-0.2-0.3-0.4-0.5-0.6l2.5,0.4c0,0,4.2,10.5,4.2,10.6     C226.3,16.1,226.5,16.3,227.2,16.3z M222.5,11.5l-2.2-5.5l-2.2,5.5H222.5z"/>
		</g>
		<g>
			<path class="st0" d="M81.1,43h2.7c0.4,0,0.7,0,1,0.1c0.3,0.1,0.5,0.2,0.7,0.4c0.2,0.2,0.3,0.4,0.4,0.6c0.1,0.2,0.1,0.5,0.1,0.8     c0,0.3,0,0.5-0.1,0.8c-0.1,0.2-0.2,0.4-0.4,0.6c-0.2,0.2-0.4,0.3-0.7,0.4c-0.3,0.1-0.6,0.1-1,0.1l-1.7,0v1.4h-1.1V43z M83.9,45.8     c0.2,0,0.4,0,0.5-0.1c0.1,0,0.3-0.1,0.4-0.2c0.1-0.1,0.2-0.2,0.2-0.3c0-0.1,0.1-0.3,0.1-0.4c0-0.3-0.1-0.5-0.3-0.7     c-0.2-0.2-0.5-0.3-0.9-0.3h-1.7v2H83.9z"/>
			<path class="st0" d="M88.8,43h2.6c0.4,0,0.7,0,1,0.1c0.3,0.1,0.5,0.2,0.7,0.4c0.2,0.2,0.3,0.3,0.4,0.6c0.1,0.2,0.1,0.5,0.1,0.8     c0,0.2,0,0.4-0.1,0.5c0,0.2-0.1,0.3-0.2,0.5c-0.1,0.1-0.2,0.3-0.4,0.4c-0.1,0.1-0.3,0.2-0.5,0.3l1.1,1.7h-1.3l-1-1.5h0l-1.6,0     v1.5h-1.1V43z M91.5,45.7c0.2,0,0.4,0,0.5-0.1c0.1,0,0.3-0.1,0.4-0.2c0.1-0.1,0.2-0.2,0.2-0.3c0-0.1,0.1-0.3,0.1-0.4     c0-0.3-0.1-0.5-0.3-0.7c-0.2-0.2-0.5-0.2-0.9-0.2h-1.6v1.9H91.5z"/>
			<path class="st0" d="M96.5,43h4.4v0.9h-3.4v1h3v0.9h-3v1.4h3.4v0.9h-4.5V43z"/>
			<path class="st0" d="M103.7,43h1.1l1.9,1.9l1.9-1.9h1.1v5.2h-1.1v-3.7l-1.9,1.8l-1.9-1.8v3.7h-1.1V43z"/>
			<path class="st0" d="M112.4,43h1.1v5.2h-1.1V43z"/>
			<path class="st0" d="M116.1,43h1.1v2.9c0,0.2,0,0.4,0.1,0.6c0.1,0.2,0.2,0.3,0.3,0.5c0.1,0.1,0.3,0.2,0.5,0.3     c0.2,0.1,0.4,0.1,0.7,0.1c0.2,0,0.5,0,0.7-0.1c0.2-0.1,0.3-0.2,0.5-0.3c0.1-0.1,0.2-0.3,0.3-0.5c0.1-0.2,0.1-0.4,0.1-0.6V43h1v3     c0,0.3-0.1,0.6-0.2,0.9c-0.1,0.3-0.3,0.5-0.5,0.7c-0.2,0.2-0.5,0.4-0.8,0.5c-0.3,0.1-0.7,0.2-1.1,0.2c-0.4,0-0.8-0.1-1.1-0.2     c-0.3-0.1-0.6-0.3-0.8-0.5c-0.2-0.2-0.4-0.4-0.5-0.7c-0.1-0.3-0.2-0.6-0.2-0.9V43z"/>
			<path class="st0" d="M124,43h1l1.9,1.9l1.9-1.9h1.1v5.2h-1.1v-3.7l-1.9,1.8l-1.9-1.8v3.7h-1V43z"/>
		</g>
		<g>
			<path class="st0" d="M81.1,27.1h1.1v4.3h3v0.9h-4.1V27.1z"/>
			<path class="st0" d="M87,27.1h1.1V30c0,0.2,0,0.4,0.1,0.6c0.1,0.2,0.2,0.3,0.3,0.5c0.1,0.1,0.3,0.2,0.5,0.3     c0.2,0.1,0.4,0.1,0.7,0.1c0.2,0,0.5,0,0.7-0.1c0.2-0.1,0.3-0.2,0.5-0.3c0.1-0.1,0.2-0.3,0.3-0.5c0.1-0.2,0.1-0.4,0.1-0.6v-2.9     h1.1v3c0,0.3-0.1,0.6-0.2,0.9c-0.1,0.3-0.3,0.5-0.5,0.7c-0.2,0.2-0.5,0.4-0.8,0.5c-0.3,0.1-0.7,0.2-1.1,0.2     c-0.4,0-0.8-0.1-1.1-0.2c-0.3-0.1-0.6-0.3-0.8-0.5c-0.2-0.2-0.4-0.4-0.5-0.7c-0.1-0.3-0.2-0.6-0.2-0.9V27.1z"/>
			<path class="st0" d="M95.9,29.7l-2-2.5h1.3l1.4,1.8l1.4-1.8h1.3l-2,2.5l2.1,2.6H98l-1.5-1.9L95,32.3h-1.3L95.9,29.7z"/>
			<path class="st0" d="M100.9,27.1h1.1V30c0,0.2,0,0.4,0.1,0.6c0.1,0.2,0.2,0.3,0.3,0.5c0.1,0.1,0.3,0.2,0.5,0.3     c0.2,0.1,0.4,0.1,0.7,0.1c0.2,0,0.5,0,0.7-0.1c0.2-0.1,0.3-0.2,0.5-0.3c0.1-0.1,0.2-0.3,0.3-0.5c0.1-0.2,0.1-0.4,0.1-0.6v-2.9     h1.1v3c0,0.3-0.1,0.6-0.2,0.9c-0.1,0.3-0.3,0.5-0.5,0.7c-0.2,0.2-0.5,0.4-0.8,0.5c-0.3,0.1-0.7,0.2-1.1,0.2     c-0.4,0-0.8-0.1-1.1-0.2c-0.3-0.1-0.6-0.3-0.8-0.5c-0.2-0.2-0.4-0.4-0.5-0.7c-0.1-0.3-0.2-0.6-0.2-0.9V27.1z"/>
			<path class="st0" d="M108.3,27.1h2.6c0.4,0,0.7,0,1,0.1c0.3,0.1,0.5,0.2,0.7,0.4c0.2,0.2,0.3,0.3,0.4,0.6     c0.1,0.2,0.1,0.5,0.1,0.8c0,0.2,0,0.4-0.1,0.5c0,0.2-0.1,0.3-0.2,0.5c-0.1,0.1-0.2,0.3-0.4,0.4c-0.1,0.1-0.3,0.2-0.5,0.3l1.1,1.7     H112l-1-1.5h0l-1.6,0v1.5h-1.1V27.1z M111,29.9c0.2,0,0.4,0,0.5-0.1c0.1,0,0.3-0.1,0.4-0.2s0.2-0.2,0.2-0.3     c0-0.1,0.1-0.3,0.1-0.4c0-0.3-0.1-0.5-0.3-0.7c-0.2-0.2-0.5-0.2-0.9-0.2h-1.6v1.9H111z"/>
			<path class="st0" d="M117.1,31l-2.3-3.9h1.2l1.6,2.9l1.6-2.9h1.2l-2.2,3.9v1.3h-1.1V31z"/>
			<path class="st0" d="M125.5,27.1h2.8c0.3,0,0.6,0,0.9,0.1s0.5,0.2,0.6,0.3c0.2,0.1,0.3,0.3,0.4,0.4c0.1,0.2,0.1,0.4,0.1,0.6     c0,0.3-0.1,0.6-0.3,0.9c0.2,0.1,0.4,0.3,0.5,0.6c0.1,0.2,0.2,0.5,0.2,0.8c0,0.2,0,0.5-0.1,0.7c-0.1,0.2-0.2,0.4-0.4,0.5     c-0.2,0.1-0.4,0.2-0.6,0.3c-0.3,0.1-0.5,0.1-0.9,0.1h-3.2V27.1z M128.7,29.1c0.1,0,0.2,0,0.3,0c0.1-0.1,0.2-0.3,0.2-0.5     c0-0.2-0.1-0.3-0.2-0.4c-0.1-0.1-0.4-0.2-0.6-0.2h-1.7v1.1H128.7z M128.7,31.4c0.3,0,0.5-0.1,0.6-0.2c0.1-0.1,0.2-0.3,0.2-0.5     c0-0.2-0.1-0.4-0.2-0.5c-0.1-0.1-0.4-0.2-0.6-0.2h-2.1v1.4H128.7z"/>
			<path class="st0" d="M132.4,29.7c0-0.4,0.1-0.7,0.2-1.1c0.1-0.3,0.3-0.6,0.6-0.8c0.3-0.2,0.6-0.4,0.9-0.5     c0.4-0.1,0.8-0.2,1.2-0.2c0.4,0,0.8,0.1,1.2,0.2c0.4,0.1,0.7,0.3,0.9,0.5c0.3,0.2,0.5,0.5,0.6,0.8c0.1,0.3,0.2,0.7,0.2,1.1     c0,0.4-0.1,0.8-0.2,1.1c-0.1,0.3-0.3,0.6-0.6,0.8c-0.3,0.2-0.6,0.4-0.9,0.6c-0.4,0.1-0.8,0.2-1.2,0.2c-0.4,0-0.8-0.1-1.2-0.2     c-0.4-0.1-0.7-0.3-0.9-0.6c-0.3-0.2-0.5-0.5-0.6-0.8C132.5,30.5,132.4,30.1,132.4,29.7z M133.5,29.7c0,0.3,0,0.5,0.1,0.7     c0.1,0.2,0.2,0.4,0.4,0.5c0.2,0.2,0.4,0.3,0.6,0.3c0.2,0.1,0.5,0.1,0.8,0.1c0.3,0,0.5,0,0.8-0.1c0.2-0.1,0.4-0.2,0.6-0.3     c0.2-0.2,0.3-0.3,0.4-0.5c0.1-0.2,0.1-0.5,0.1-0.7c0-0.3,0-0.5-0.1-0.7c-0.1-0.2-0.2-0.4-0.4-0.5c-0.2-0.1-0.4-0.3-0.6-0.3     c-0.2-0.1-0.5-0.1-0.8-0.1c-0.3,0-0.5,0-0.8,0.1c-0.2,0.1-0.4,0.2-0.6,0.3c-0.2,0.1-0.3,0.3-0.4,0.5     C133.5,29.2,133.5,29.4,133.5,29.7z"/>
			<path class="st0" d="M140.4,27.1h1.1V30c0,0.2,0,0.4,0.1,0.6c0.1,0.2,0.2,0.3,0.3,0.5c0.1,0.1,0.3,0.2,0.5,0.3     c0.2,0.1,0.4,0.1,0.7,0.1c0.2,0,0.5,0,0.7-0.1c0.2-0.1,0.3-0.2,0.5-0.3c0.1-0.1,0.2-0.3,0.3-0.5c0.1-0.2,0.1-0.4,0.1-0.6v-2.9     h1.1v3c0,0.3-0.1,0.6-0.2,0.9c-0.1,0.3-0.3,0.5-0.5,0.7c-0.2,0.2-0.5,0.4-0.8,0.5c-0.3,0.1-0.7,0.2-1.1,0.2     c-0.4,0-0.8-0.1-1.1-0.2c-0.3-0.1-0.6-0.3-0.8-0.5c-0.2-0.2-0.4-0.4-0.5-0.7c-0.1-0.3-0.2-0.6-0.2-0.9V27.1z"/>
			<path class="st0" d="M149.3,28.1h-1.9v-0.9h4.9v0.9h-1.9v4.3h-1.1V28.1z"/>
			<path class="st0" d="M154.3,27.1h1.1v5.2h-1.1V27.1z"/>
			<path class="st0" d="M157.4,29.7c0-0.4,0.1-0.7,0.2-1.1c0.1-0.3,0.3-0.6,0.6-0.8s0.6-0.4,0.9-0.5c0.4-0.1,0.8-0.2,1.2-0.2     c0.4,0,0.8,0.1,1.2,0.2c0.4,0.1,0.7,0.3,0.9,0.5s0.5,0.5,0.6,0.8c0.1,0.3,0.2,0.7,0.2,1.1c0,0.3-0.1,0.7-0.2,1     c-0.1,0.3-0.3,0.6-0.5,0.8l0.9,0.8h-1.3L162,32c-0.2,0.1-0.5,0.2-0.7,0.3c-0.3,0.1-0.6,0.1-0.9,0.1c-0.4,0-0.8-0.1-1.2-0.2     c-0.4-0.1-0.7-0.3-0.9-0.6s-0.5-0.5-0.6-0.8C157.5,30.5,157.4,30.1,157.4,29.7z M158.5,29.7c0,0.3,0,0.5,0.1,0.7     c0.1,0.2,0.2,0.4,0.4,0.5c0.2,0.2,0.4,0.3,0.6,0.3c0.2,0.1,0.5,0.1,0.8,0.1c0.3,0,0.6,0,0.8-0.1l-1.5-1.3h1.3l0.9,0.8     c0.1-0.1,0.2-0.3,0.3-0.5c0.1-0.2,0.1-0.4,0.1-0.6c0-0.3,0-0.5-0.1-0.7c-0.1-0.2-0.2-0.4-0.4-0.5c-0.2-0.1-0.4-0.3-0.6-0.3     c-0.2-0.1-0.5-0.1-0.8-0.1c-0.3,0-0.5,0-0.8,0.1c-0.2,0.1-0.4,0.2-0.6,0.3c-0.2,0.1-0.3,0.3-0.4,0.5     C158.5,29.2,158.5,29.4,158.5,29.7z"/>
			<path class="st0" d="M165.3,27.1h1.1V30c0,0.2,0,0.4,0.1,0.6s0.2,0.3,0.3,0.5c0.1,0.1,0.3,0.2,0.5,0.3c0.2,0.1,0.4,0.1,0.7,0.1     c0.2,0,0.5,0,0.7-0.1c0.2-0.1,0.3-0.2,0.5-0.3c0.1-0.1,0.2-0.3,0.3-0.5c0.1-0.2,0.1-0.4,0.1-0.6v-2.9h1v3c0,0.3-0.1,0.6-0.2,0.9     c-0.1,0.3-0.3,0.5-0.5,0.7c-0.2,0.2-0.5,0.4-0.8,0.5c-0.3,0.1-0.7,0.2-1.1,0.2c-0.4,0-0.8-0.1-1.1-0.2c-0.3-0.1-0.6-0.3-0.8-0.5     c-0.2-0.2-0.4-0.4-0.5-0.7s-0.2-0.6-0.2-0.9V27.1z"/>
			<path class="st0" d="M172.8,27.1h4.4v0.9h-3.4v1h3V30h-3v1.4h3.4v0.9h-4.5V27.1z"/>
			<path class="st0" d="M182.7,27.1h1.1v1.4h3.2v-1.4h1.1v5.2H187v-2.9h-3.2v2.9h-1.1V27.1z"/>
			<path class="st0" d="M190.2,29.7c0-0.4,0.1-0.7,0.2-1.1c0.1-0.3,0.3-0.6,0.6-0.8c0.3-0.2,0.6-0.4,0.9-0.5     c0.4-0.1,0.8-0.2,1.2-0.2c0.4,0,0.8,0.1,1.2,0.2c0.4,0.1,0.7,0.3,0.9,0.5c0.3,0.2,0.5,0.5,0.6,0.8c0.1,0.3,0.2,0.7,0.2,1.1     c0,0.4-0.1,0.8-0.2,1.1c-0.1,0.3-0.3,0.6-0.6,0.8c-0.3,0.2-0.6,0.4-0.9,0.6c-0.4,0.1-0.8,0.2-1.2,0.2c-0.4,0-0.8-0.1-1.2-0.2     c-0.4-0.1-0.7-0.3-0.9-0.6c-0.3-0.2-0.5-0.5-0.6-0.8C190.3,30.5,190.2,30.1,190.2,29.7z M191.2,29.7c0,0.3,0,0.5,0.1,0.7     c0.1,0.2,0.2,0.4,0.4,0.5c0.2,0.2,0.4,0.3,0.6,0.3c0.2,0.1,0.5,0.1,0.8,0.1c0.3,0,0.5,0,0.8-0.1c0.2-0.1,0.4-0.2,0.6-0.3     c0.2-0.2,0.3-0.3,0.4-0.5c0.1-0.2,0.1-0.5,0.1-0.7c0-0.3,0-0.5-0.1-0.7c-0.1-0.2-0.2-0.4-0.4-0.5c-0.2-0.1-0.4-0.3-0.6-0.3     c-0.2-0.1-0.5-0.1-0.8-0.1c-0.3,0-0.5,0-0.8,0.1c-0.2,0.1-0.4,0.2-0.6,0.3c-0.2,0.1-0.3,0.3-0.4,0.5S191.2,29.4,191.2,29.7z"/>
			<path class="st0" d="M199.9,28.1H198v-0.9h4.9v0.9h-1.9v4.3h-1.1V28.1z"/>
			<path class="st0" d="M205,27.1h4.4v0.9H206v1h3V30h-3v1.4h3.4v0.9H205V27.1z"/>
			<path class="st0" d="M211.6,27.1h1.1v4.3h3v0.9h-4.1V27.1z"/>
		</g>
	</g>
	<path class="st0" d="M51.3,25.6c-0.3-0.9-1.1-1.5-1.9-1.9c-1.8-0.7-3.8-0.1-5.4,0.9c-0.8,0.5-1.6,1.1-2.4,1.6   c-0.1,0.1-0.2,0.2-0.3,0.2L41,26.6l-0.5-0.2c-0.8-0.3-1.6-0.6-2.4-0.8c1.3-1.2,2.2-2.6,3.1-4.1c1.5-0.1,3.1-0.4,4.2-1.1   c0.5-0.3,0.2-1.3-0.4-1l0,0l0,0c-1,0.7-2.1,1-3.3,1.2l0.2-0.4c0.7-1.2,1.5-2.3,2.4-3.2c0.8-0.8,1.9-1.4,3.1-1.2   c1.7,0.3,2.1,2.7,0.5,2.8c-0.2,0-1,0-1-0.3c0-0.3,0.1-0.5-0.2-0.7c-0.5-0.4-1.1,0.6-0.6,1.3c0.6,0.8,2.2,0.9,2.9,0.4   c1.3-0.8,1.2-2.4,0.3-3.5c-0.6-0.7-1.6-1-2.5-1c-2,0-3.5,1.4-4.7,2.9c-0.6,0.8-1.1,1.6-1.6,2.4c-0.1,0.1-0.1,0.2-0.2,0.3l-0.2,0.3   l-0.6,0c-0.9,0.1-1.7,0.1-2.5,0.2c0.8-1.6,1-3.3,1.3-5c1.4-0.7,2.7-1.5,3.5-2.6c0.4-0.5-0.3-1.3-0.8-0.8l0,0l0,0   c-0.6,1-1.5,1.8-2.6,2.4l0.1-0.4c0.2-1.3,0.5-2.7,1-3.9c0.5-1.1,1.2-2,2.4-2.3c1.7-0.4,2.9,1.7,1.6,2.4c-0.2,0.1-0.9,0.4-1,0.1   c-0.1-0.2-0.1-0.5-0.4-0.6c-0.6-0.2-0.8,1-0.1,1.4c0.8,0.5,2.3,0,2.8-0.8c0.9-1.2,0.2-2.7-1.1-3.3c-0.9-0.4-1.8-0.3-2.7,0   c-1.8,0.8-2.7,2.6-3.2,4.4c-0.2,0.9-0.4,1.9-0.5,2.8c0,0.1,0,0.3-0.1,0.4l0,0.4l-0.5,0.3c-0.8,0.4-1.6,0.7-2.3,1.1   c0.1-1.7-0.3-3.4-0.7-5.1c1-1.2,1.9-2.4,2.3-3.8c0.2-0.6-0.8-1-1-0.4l0,0v0c-0.2,1.2-0.7,2.2-1.5,3.2l-0.1-0.4   c-0.3-1.3-0.6-2.6-0.5-4c0-1.2,0.3-2.3,1.3-3c1.4-1,3.3,0.4,2.4,1.6c-0.1,0.2-0.7,0.7-0.9,0.5c-0.2-0.2-0.3-0.4-0.6-0.4   c-0.7,0-0.4,1.2,0.4,1.3c1,0.1,2.1-0.9,2.3-1.8c0.3-1.5-0.8-2.6-2.3-2.6c-1,0-1.8,0.4-2.5,1.1c-1.4,1.4-1.5,3.5-1.3,5.3   c0.1,1,0.4,1.9,0.6,2.8c0,0.1,0.1,0.3,0.1,0.4l0.1,0.3l-0.4,0.4c-0.6,0.7-1.2,1.3-1.7,1.9c-0.6-1.7-1.6-3.1-2.6-4.4   c0.5-1.5,0.8-2.9,0.6-4.3c-0.1-0.6-1.1-0.7-1.1,0v0l0,0c0.3,1.1,0.2,2.3-0.1,3.5L27,9.1c-0.8-1.1-1.5-2.2-2-3.5   c-0.4-1.1-0.6-2.2,0.1-3.3c0.9-1.5,3.2-0.9,2.8,0.6c-0.1,0.2-0.3,0.9-0.6,0.8c-0.3-0.1-0.4-0.3-0.7-0.1c-0.6,0.3,0.1,1.3,0.9,1.1   C28.4,4.4,29,3,28.9,2.1c-0.2-1.5-1.8-2.1-3.1-1.6c-0.9,0.3-1.5,1.1-1.9,1.9c-0.8,1.8-0.1,3.8,0.9,5.4c0.5,0.8,1.1,1.6,1.6,2.4   c0.1,0.1,0.2,0.2,0.3,0.3l0.2,0.2l-0.2,0.6c-0.3,0.8-0.6,1.6-0.8,2.4c-1.2-1.3-2.6-2.2-4.1-3.1c-0.1-1.5-0.4-3.1-1.1-4.2   c-0.3-0.5-1.3-0.2-1,0.5l0,0l0,0c0.7,1,1,2.1,1.2,3.3L20.5,10c-1.2-0.7-2.3-1.4-3.2-2.4c-0.8-0.8-1.4-1.9-1.2-3.1   c0.3-1.7,2.7-2.1,2.8-0.5c0,0.2,0,1-0.3,1c-0.3,0-0.5-0.1-0.7,0.2c-0.4,0.5,0.6,1.1,1.3,0.6C20,5.2,20,3.6,19.5,2.8   c-0.8-1.3-2.4-1.2-3.5-0.3c-0.7,0.6-1,1.6-1,2.5c0,2,1.4,3.5,2.9,4.7c0.8,0.6,1.6,1.1,2.4,1.6c0.1,0.1,0.2,0.1,0.4,0.2l0.3,0.2   l0,0.6c0.1,0.9,0.1,1.7,0.2,2.5c-1.6-0.8-3.3-1-5-1.3c-0.7-1.4-1.5-2.7-2.6-3.5c-0.5-0.4-1.3,0.3-0.8,0.8l0,0l0,0   c1,0.6,1.8,1.5,2.4,2.6l-0.4-0.1c-1.3-0.2-2.7-0.5-3.9-1c-1.1-0.5-2-1.2-2.3-2.4C8.3,8.2,10.4,7,11.1,8.3c0.1,0.2,0.4,0.9,0.1,1   c-0.2,0.1-0.5,0.1-0.6,0.4c-0.2,0.6,1,0.8,1.4,0.1c0.5-0.8,0-2.3-0.8-2.8C10,6.2,8.5,6.8,7.9,8.1C7.5,9,7.6,10,8,10.8   c0.8,1.8,2.6,2.7,4.4,3.2c0.9,0.2,1.9,0.4,2.8,0.5c0.1,0,0.3,0,0.4,0l0.3,0l0.3,0.5c0.4,0.8,0.7,1.6,1.1,2.3   c-1.7-0.1-3.4,0.3-5.1,0.7c-1.2-1-2.4-1.9-3.8-2.2c-0.6-0.2-1,0.8-0.4,1l0,0l0,0c1.2,0.2,2.2,0.7,3.2,1.5l-0.4,0.1   c-1.3,0.3-2.6,0.6-4,0.5c-1.2,0-2.3-0.3-3-1.3c-1-1.4,0.4-3.3,1.6-2.4C5.7,15.5,6.3,16,6,16.3c-0.2,0.2-0.4,0.3-0.4,0.6   c0,0.7,1.2,0.4,1.3-0.4c0.1-1-0.9-2.1-1.8-2.3c-1.5-0.3-2.6,0.8-2.6,2.3c0,1,0.4,1.8,1.1,2.5c1.4,1.4,3.5,1.5,5.3,1.3   c1-0.1,1.9-0.4,2.8-0.6c0.1,0,0.3-0.1,0.4-0.1l0.3-0.1l0.4,0.4c0.7,0.6,1.3,1.2,1.9,1.7c-1.6,0.6-3,1.6-4.4,2.6   c-1.5-0.5-3-0.8-4.3-0.6c-0.6,0.1-0.7,1.1,0,1.1h0l0,0c1.2-0.3,2.3-0.2,3.5,0.1l-0.4,0.3c-1.1,0.8-2.2,1.5-3.5,2   c-1.1,0.4-2.2,0.6-3.3-0.1C1,25.9,1.6,23.5,3.1,24c0.2,0.1,0.9,0.3,0.8,0.6c-0.1,0.3-0.3,0.4-0.1,0.7c0.3,0.6,1.3-0.1,1.1-0.9   c-0.2-0.9-1.7-1.6-2.6-1.5c-1.5,0.2-2.1,1.8-1.6,3.1C1.1,27,1.8,27.6,2.7,28c1.8,0.7,3.8,0.1,5.4-0.9c0.8-0.5,1.6-1.1,2.4-1.6   c0.1-0.1,0.2-0.2,0.3-0.2L11,25l0.5,0.2c0.8,0.3,1.6,0.6,2.4,0.8c-1.3,1.2-2.2,2.6-3.1,4.1c-1.5,0.1-3.1,0.4-4.3,1.1   c-0.5,0.3-0.2,1.3,0.5,1l0,0l0,0c1-0.7,2.1-1,3.3-1.2l-0.2,0.4c-0.7,1.2-1.4,2.3-2.4,3.2c-0.8,0.8-1.9,1.4-3.1,1.2   C3,35.4,2.6,33,4.2,32.9c0.2,0,1,0,1,0.3c0,0.3-0.1,0.5,0.2,0.7c0.5,0.4,1.1-0.6,0.6-1.3c-0.6-0.8-2.2-0.9-2.9-0.4   c-1.3,0.8-1.2,2.4-0.3,3.5c0.6,0.7,1.6,1,2.5,1c2,0,3.5-1.4,4.7-2.9c0.6-0.8,1.1-1.6,1.6-2.4c0.1-0.1,0.1-0.2,0.2-0.3l0.2-0.3   l0.6,0c0.9-0.1,1.7-0.1,2.5-0.2c-0.8,1.6-1,3.3-1.3,5c-1.4,0.7-2.7,1.5-3.5,2.6c-0.4,0.5,0.3,1.2,0.8,0.8l0,0l0,0   c0.6-1,1.5-1.8,2.6-2.4l-0.1,0.4c-0.2,1.3-0.5,2.7-1,3.9c-0.5,1.1-1.2,2-2.4,2.3c-1.7,0.4-2.9-1.7-1.6-2.4c0.2-0.1,0.9-0.4,1-0.1   c0.1,0.2,0.1,0.5,0.4,0.6c0.6,0.2,0.8-1,0.1-1.4c-0.8-0.5-2.3,0-2.8,0.8c-0.9,1.2-0.2,2.7,1.1,3.3c0.9,0.4,1.8,0.3,2.7,0   c1.8-0.8,2.7-2.6,3.2-4.4c0.2-0.9,0.4-1.9,0.5-2.8c0-0.1,0-0.3,0.1-0.4l0-0.4l0.5-0.3c0.8-0.4,1.6-0.7,2.3-1.1   c-0.1,1.7,0.3,3.4,0.7,5.1c-1,1.2-1.9,2.4-2.3,3.8c-0.2,0.6,0.8,1,1,0.4v0l0,0c0.2-1.2,0.7-2.2,1.5-3.2l0.1,0.4   c0.3,1.3,0.6,2.6,0.5,4c0,1.2-0.3,2.3-1.3,3c-1.4,1-3.3-0.4-2.4-1.6c0.1-0.2,0.7-0.7,0.9-0.5c0.2,0.2,0.3,0.4,0.6,0.4   c0.7,0,0.4-1.2-0.4-1.3c-1-0.1-2.1,0.9-2.3,1.8c-0.3,1.5,0.8,2.6,2.3,2.6c1,0,1.8-0.4,2.5-1.1c1.4-1.4,1.5-3.5,1.3-5.3   C20.2,41.9,20,41,19.7,40c0-0.1-0.1-0.3-0.1-0.4l-0.1-0.3l0.4-0.4c0.6-0.6,1.1-1.3,1.7-1.9c0.6,1.6,1.6,3,2.6,4.4   c-0.5,1.5-0.8,3-0.6,4.3c0.1,0.6,1.1,0.7,1.1,0v0l0,0c-0.3-1.2-0.2-2.3,0.1-3.5l0.3,0.4c0.8,1.1,1.5,2.2,2,3.5   c0.4,1.1,0.6,2.2-0.1,3.3c-0.9,1.5-3.2,0.9-2.8-0.6c0.1-0.2,0.3-0.9,0.6-0.8c0.3,0.1,0.4,0.3,0.7,0.1c0.6-0.3-0.1-1.3-0.9-1.1   c-0.9,0.2-1.6,1.7-1.5,2.6c0.2,1.5,1.8,2.1,3.1,1.6c0.9-0.3,1.5-1.1,1.9-1.9c0.8-1.8,0.1-3.8-0.9-5.4c-0.5-0.8-1.1-1.6-1.6-2.4   c-0.1-0.1-0.2-0.2-0.2-0.3l-0.2-0.3l0.2-0.5c0.3-0.8,0.6-1.6,0.8-2.4c1.2,1.3,2.6,2.2,4.1,3.1c0.1,1.5,0.4,3.1,1.1,4.2   c0.3,0.5,1.3,0.2,1-0.4l0,0l0,0c-0.7-1-1-2.1-1.2-3.3l0.4,0.2c1.2,0.7,2.3,1.4,3.2,2.4c0.8,0.8,1.4,1.9,1.2,3.1   c-0.3,1.7-2.7,2.1-2.8,0.5c0-0.2,0-1,0.3-1c0.3,0,0.5,0.1,0.7-0.2c0.4-0.5-0.6-1.1-1.3-0.6c-0.8,0.6-0.9,2.2-0.4,2.9   c0.8,1.3,2.4,1.2,3.5,0.3c0.7-0.6,1-1.6,1-2.5c0-2-1.4-3.5-2.9-4.7c-0.8-0.6-1.6-1.1-2.4-1.6c-0.1-0.1-0.2-0.1-0.4-0.2L31,40l0-0.6   c-0.1-0.9-0.1-1.7-0.2-2.5c1.6,0.8,3.3,1,5,1.3c0.7,1.4,1.5,2.7,2.6,3.5c0.5,0.4,1.3-0.3,0.8-0.8l0,0l0,0c-1-0.6-1.8-1.5-2.4-2.6   l0.4,0.1c1.3,0.2,2.7,0.5,3.9,1c1.1,0.5,2,1.2,2.3,2.4c0.4,1.7-1.7,2.9-2.4,1.6c-0.1-0.2-0.4-0.9-0.1-1c0.2-0.1,0.5-0.1,0.6-0.4   c0.2-0.6-1-0.8-1.4-0.1c-0.5,0.8,0,2.3,0.8,2.8c1.2,0.9,2.7,0.2,3.3-1.1c0.4-0.9,0.3-1.8,0-2.7c-0.8-1.8-2.6-2.7-4.4-3.2   c-0.9-0.2-1.9-0.4-2.8-0.5c-0.1,0-0.3,0-0.4-0.1L36,37l-0.3-0.5c-0.4-0.8-0.7-1.6-1.1-2.3c1.7,0.1,3.4-0.3,5.1-0.7   c1.2,1,2.4,1.9,3.8,2.2c0.6,0.2,1-0.8,0.4-1l0,0h0c-1.2-0.2-2.2-0.7-3.2-1.5l0.4-0.1c1.3-0.3,2.6-0.6,4-0.5c1.2,0,2.3,0.3,3,1.3   c1,1.4-0.4,3.3-1.6,2.4c-0.2-0.1-0.7-0.7-0.5-0.9c0.2-0.2,0.4-0.3,0.4-0.6c0-0.7-1.2-0.4-1.3,0.4c-0.1,1,0.9,2.1,1.8,2.3   c1.5,0.3,2.6-0.8,2.6-2.3c0-1-0.4-1.8-1.1-2.5c-1.4-1.4-3.5-1.5-5.3-1.3c-0.9,0.1-1.9,0.4-2.8,0.6c-0.1,0-0.3,0.1-0.4,0.1l-0.3,0.1   l-0.4-0.4c-0.6-0.6-1.3-1.2-1.9-1.7c1.6-0.6,3-1.6,4.4-2.6c1.5,0.5,3,0.8,4.3,0.6c0.6-0.1,0.7-1.1,0-1.1h0h0   c-1.2,0.3-2.3,0.2-3.5-0.1l0.4-0.3c1.1-0.8,2.2-1.5,3.5-2c1.1-0.4,2.2-0.6,3.3,0.1c1.5,0.9,0.9,3.3-0.6,2.8   c-0.2-0.1-0.9-0.3-0.8-0.6c0.1-0.3,0.3-0.4,0.1-0.7c-0.3-0.6-1.3,0.1-1.1,0.9c0.2,0.9,1.7,1.6,2.6,1.5   C51.2,28.4,51.8,26.9,51.3,25.6z M29.7,18c-0.1,0.3-0.5,1.8-1,1.7c-0.2-0.1,0-0.8,0-0.9c0.2-0.6,0.5-1.2,0.9-1.8   c0.1-0.1,0.2-0.3,0.3-0.4C29.8,17,29.8,17.6,29.7,18z M25.9,16.3c0-0.2,0.1-0.3,0.1-0.5c0.2,0.4,0.3,0.9,0.4,1.3   c0,0.3,0.2,1.9-0.3,2c-0.2,0-0.3-0.7-0.3-0.8C25.7,17.6,25.8,16.9,25.9,16.3z M22.4,33.6c0.1-0.3,0.5-1.8,1-1.7   c0.2,0.1,0,0.8,0,0.9c-0.2,0.6-0.5,1.3-0.9,1.8c-0.1,0.1-0.2,0.3-0.3,0.4C22.2,34.6,22.3,34,22.4,33.6z M26.1,35.3   c0,0.2-0.1,0.3-0.1,0.5c-0.2-0.4-0.3-0.9-0.4-1.3c0-0.3-0.2-1.9,0.3-2c0.2,0,0.3,0.7,0.3,0.8C26.3,34,26.2,34.7,26.1,35.3z    M34.1,28.2c-0.6-0.3-2.8-1.2-3.3-0.5c-0.1,0.1-0.1,0.2-0.1,0.3c-0.2,1.3,1.9,2.1,2.9,2.3c0.8,0.2,2.1,0.4,2.9,0.2   c0.6,0.5,1.2,1.1,1.9,1.7l0.4,0.4c-1.6,0.4-3.3,0.8-4.7,0.5c-0.3-0.7-0.9-1.4-1.4-2c-0.5-0.5-2.1-2.2-2.9-1.8   c-0.1,0-0.2,0.1-0.2,0.2c-0.7,1.1,1,2.6,1.8,3.2c0.7,0.5,1.8,1.2,2.6,1.3c0.4,0.7,0.7,1.5,1.1,2.3l0.2,0.5   c-1.6-0.2-3.4-0.5-4.5-1.3c-0.1-0.8-0.3-1.6-0.6-2.4c-0.2-0.7-1.1-2.8-2-2.7c-0.1,0-0.2,0-0.3,0.1c-1.1,0.8-0.1,2.8,0.4,3.7   c0.4,0.7,1.2,1.8,1.9,2.2c0.1,0.8,0.1,1.7,0.1,2.6l0,0.5c-1.4-0.8-2.9-1.8-3.7-3c0.2-0.7,0.3-1.6,0.4-2.4c0-0.7,0.1-3-0.8-3.3   c-0.1,0-0.2,0-0.3,0c-1.3,0.3-1.2,2.6-1,3.5c0.1,0.8,0.4,2.1,0.9,2.8c-0.2,0.8-0.6,1.6-0.9,2.4l-0.2,0.5c-1-1.3-2-2.8-2.3-4.1   c0.5-0.6,0.9-1.4,1.3-2.1c0.3-0.6,1.2-2.8,0.5-3.3c-0.1-0.1-0.2-0.1-0.3-0.1c-1.3-0.2-2.1,1.9-2.3,2.9c-0.2,0.8-0.4,2.1-0.2,2.9   c-0.5,0.6-1.1,1.2-1.7,1.9l-0.4,0.4c-0.4-1.6-0.8-3.3-0.5-4.7c0.7-0.3,1.4-0.9,2-1.4c0.5-0.5,2.2-2.1,1.8-2.9   c0-0.1-0.1-0.2-0.2-0.2c-1.1-0.7-2.6,1-3.2,1.8c-0.5,0.7-1.2,1.8-1.3,2.6c-0.7,0.4-1.5,0.7-2.3,1.1l-0.5,0.2   c0.2-1.6,0.5-3.4,1.3-4.6c0.8-0.1,1.6-0.3,2.4-0.6c0.7-0.2,2.8-1.1,2.7-2c0-0.1,0-0.2-0.1-0.3c-0.8-1.1-2.8-0.1-3.7,0.4   c-0.7,0.4-1.8,1.2-2.2,1.9c-0.8,0.1-1.7,0.1-2.6,0.1l-0.5,0c0.8-1.4,1.8-2.9,3-3.7c0.7,0.2,1.6,0.3,2.4,0.4c0.7,0,3,0.1,3.3-0.8   c0-0.1,0-0.2,0-0.3c-0.3-1.3-2.6-1.2-3.5-1c-0.8,0.1-2.1,0.4-2.8,0.9c-0.8-0.2-1.6-0.6-2.4-0.9l-0.5-0.2c1.3-1,2.8-2,4.1-2.3   c0.6,0.5,1.4,0.9,2.1,1.3c0.6,0.3,2.8,1.2,3.3,0.5c0.1-0.1,0.1-0.2,0.1-0.3c0.2-1.3-1.9-2.1-2.9-2.3c-0.8-0.2-2.1-0.4-2.9-0.2   c-0.6-0.5-1.2-1.1-1.9-1.7l-0.4-0.4c1.6-0.4,3.3-0.8,4.7-0.5c0.3,0.7,0.9,1.4,1.4,2c0.5,0.5,2.1,2.2,2.9,1.8c0.1,0,0.2-0.1,0.2-0.2   c0.7-1.1-1-2.6-1.8-3.2c-0.7-0.5-1.8-1.2-2.6-1.3c-0.4-0.7-0.7-1.5-1.1-2.3l-0.2-0.5c1.6,0.2,3.4,0.5,4.6,1.3   c0.1,0.8,0.3,1.6,0.6,2.3c0.2,0.7,1.1,2.8,2,2.7c0.1,0,0.2,0,0.3-0.1c1.1-0.8,0.1-2.8-0.4-3.7c-0.4-0.7-1.2-1.8-1.9-2.2   c-0.1-0.8-0.1-1.7-0.1-2.6l0-0.5c1.4,0.8,2.9,1.8,3.7,2.9c-0.2,0.7-0.3,1.6-0.4,2.4c0,0.7-0.1,3,0.8,3.3c0.1,0,0.2,0,0.3,0   c1.3-0.3,1.2-2.6,1-3.5c-0.1-0.8-0.4-2.1-0.9-2.8c0.2-0.7,0.6-1.6,0.9-2.4l0.2-0.5c1,1.3,2,2.8,2.3,4.2c-0.5,0.6-0.9,1.4-1.3,2.1   c-0.3,0.6-1.2,2.8-0.5,3.3c0.1,0.1,0.2,0.1,0.3,0.1c1.3,0.2,2.1-1.9,2.3-2.9c0.2-0.8,0.4-2.1,0.2-2.9c0.5-0.6,1.1-1.2,1.7-1.9   l0.4-0.4c0.4,1.6,0.8,3.3,0.5,4.7c-0.7,0.3-1.4,0.9-2,1.4c-0.5,0.5-2.2,2.1-1.8,2.9c0,0.1,0.1,0.2,0.2,0.2c1.1,0.7,2.6-1,3.2-1.8   c0.5-0.7,1.2-1.8,1.3-2.6c0.7-0.4,1.5-0.7,2.3-1.1l0.5-0.2c-0.2,1.6-0.5,3.4-1.3,4.6c-0.8,0.1-1.6,0.3-2.4,0.6   c-0.7,0.2-2.8,1.1-2.7,2c0,0.1,0,0.2,0.1,0.3c0.8,1.1,2.8,0.1,3.7-0.4c0.7-0.4,1.8-1.2,2.2-1.9c0.8-0.1,1.7-0.1,2.6-0.1l0.5,0   c-0.8,1.4-1.8,2.9-3,3.7c-0.7-0.2-1.6-0.3-2.4-0.4c-0.7,0-3-0.1-3.3,0.8c0,0.1,0,0.2,0,0.3c0.3,1.3,2.6,1.2,3.5,1   c0.8-0.1,2.1-0.4,2.8-0.9c0.7,0.2,1.6,0.6,2.4,0.9l0.5,0.2c-1.3,1-2.8,2-4.1,2.3C35.5,29,34.8,28.5,34.1,28.2z M35.2,29.6   c-0.4,0-1-0.1-1.4-0.2c-0.3-0.1-1.8-0.5-1.7-1c0.1-0.2,0.8,0,0.9,0c0.6,0.2,1.2,0.5,1.8,0.9C35,29.4,35.1,29.5,35.2,29.6z    M33.1,32.8c-0.4-0.1-0.9-0.4-1.2-0.7c-0.2-0.2-1.5-1.2-1.2-1.6c0.2-0.2,0.7,0.3,0.8,0.4c0.5,0.4,1,0.9,1.3,1.5   C32.9,32.6,33,32.7,33.1,32.8z M29.8,35c-0.3-0.3-0.6-0.7-0.9-1.1c-0.2-0.2-0.9-1.7-0.5-1.9c0.2-0.1,0.6,0.5,0.6,0.6   c0.3,0.6,0.5,1.2,0.7,1.9C29.8,34.7,29.8,34.9,29.8,35z M19,32.9c0.1-0.4,0.4-0.9,0.7-1.2c0.2-0.2,1.2-1.5,1.6-1.2   c0.2,0.2-0.3,0.7-0.4,0.8c-0.4,0.5-0.9,1-1.5,1.3C19.2,32.7,19.1,32.8,19,32.9z M16.8,29.6c0.3-0.3,0.7-0.6,1.1-0.9   c0.2-0.1,1.7-0.9,1.9-0.5c0.1,0.2-0.5,0.6-0.7,0.6c-0.6,0.3-1.2,0.5-1.9,0.7C17.1,29.6,17,29.6,16.8,29.6z M16,25.8   c0.4-0.2,0.9-0.3,1.3-0.4c0.3,0,1.9-0.2,2,0.3c0,0.2-0.7,0.3-0.8,0.3c-0.6,0.1-1.3,0-2-0.1C16.3,25.9,16.2,25.9,16,25.8z M16.8,22   c0.4,0,1,0.1,1.4,0.2c0.3,0.1,1.8,0.5,1.7,1c-0.1,0.2-0.8,0-0.9,0c-0.6-0.2-1.3-0.5-1.8-0.9C17,22.2,16.9,22.1,16.8,22z M18.9,18.8   c0.4,0.1,0.9,0.4,1.2,0.7c0.2,0.2,1.5,1.2,1.2,1.6c-0.1,0.2-0.7-0.3-0.8-0.4c-0.5-0.4-1-0.9-1.3-1.5C19.1,19,19,18.9,18.9,18.8z    M22.2,16.6c0.3,0.3,0.6,0.7,0.9,1.1c0.1,0.2,0.9,1.7,0.5,1.9c-0.2,0.1-0.6-0.5-0.6-0.6c-0.3-0.6-0.5-1.2-0.7-1.9   C22.2,16.9,22.2,16.8,22.2,16.6z M33,18.8c-0.1,0.4-0.4,0.9-0.7,1.2c-0.2,0.2-1.2,1.5-1.6,1.2c-0.2-0.2,0.3-0.7,0.4-0.8   c0.4-0.5,1-1,1.5-1.3C32.8,18.9,32.9,18.8,33,18.8z M35.2,22c-0.3,0.3-0.7,0.6-1.1,0.9c-0.2,0.1-1.7,0.9-1.9,0.5   c-0.1-0.2,0.5-0.6,0.6-0.6c0.6-0.3,1.2-0.5,1.9-0.7C34.9,22,35,22,35.2,22z M36,25.8c-0.4,0.2-0.9,0.3-1.3,0.4   c-0.3,0-1.9,0.2-2-0.3c0-0.2,0.7-0.3,0.8-0.3c0.6-0.1,1.3,0,2,0.1C35.7,25.7,35.8,25.8,36,25.8z"/>
	<g>
		<polyline class="st0" points="66,1 66,50.6 66.5,50.6 66.5,1   "/>
	</g>
</g>
</svg>